<?xml version="1.0" encoding='UTF-8' standalone='no' ?>
<!DOCTYPE score-partwise PUBLIC "-//Recordare//DTD MusicXML 2.0 Partwise//EN" "http://www.musicxml.org/dtds/partwise.dtd">
<score-partwise version="2.0">
 <work>
  <work-title />
 </work>
 <identification>
  <rights>Copyright © </rights>
  <encoding>
   <encoding-date>2016-03-04</encoding-date>
   <encoder>Miguel Nunes</encoder>
   <software>Sibelius 7.0.0</software>
   <software>Direct export, not from Dolet</software>
   <encoding-description>Sibelius / MusicXML 2.0</encoding-description>
   <supports element="print" type="yes" value="yes" attribute="new-system" />
   <supports element="print" type="yes" value="yes" attribute="new-page" />
   <supports element="accidental" type="yes" />
   <supports element="beam" type="yes" />
   <supports element="stem" type="yes" />
  </encoding>
 </identification>
 <defaults>
  <scaling>
   <millimeters>210</millimeters>
   <tenths>1866</tenths>
  </scaling>
  <page-layout>
   <page-height>1324</page-height>
   <page-width>1866</page-width>
   <page-margins type="both">
    <left-margin>133</left-margin>
    <right-margin>133</right-margin>
    <top-margin>88</top-margin>
    <bottom-margin>44</bottom-margin>
   </page-margins>
  </page-layout>
  <system-layout>
   <system-margins>
    <left-margin>21</left-margin>
    <right-margin>0</right-margin>
   </system-margins>
   <system-distance>92</system-distance>
  </system-layout>
  <appearance>
   <line-width type="stem">0.9375</line-width>
   <line-width type="beam">5</line-width>
   <line-width type="staff">0.9375</line-width>
   <line-width type="light barline">1.5625</line-width>
   <line-width type="heavy barline">5</line-width>
   <line-width type="leger">1.5625</line-width>
   <line-width type="ending">1.5625</line-width>
   <line-width type="wedge">1.25</line-width>
   <line-width type="enclosure">0.9375</line-width>
   <line-width type="tuplet bracket">1.25</line-width>
   <line-width type="bracket">5</line-width>
   <line-width type="dashes">1.5625</line-width>
   <line-width type="extend">0.9375</line-width>
   <line-width type="octave shift">1.5625</line-width>
   <line-width type="pedal">1.5625</line-width>
   <line-width type="slur middle">1.5625</line-width>
   <line-width type="slur tip">0.625</line-width>
   <line-width type="tie middle">1.5625</line-width>
   <line-width type="tie tip">0.625</line-width>
   <note-size type="cue">75</note-size>
   <note-size type="grace">60</note-size>
  </appearance>
  <music-font font-family="Helsinki Std" font-size="12.7559" />
  <lyric-font font-family="Georgia" font-size="6.7766" />
  <lyric-language xml:lang="en" />
 </defaults>
 <part-list>
  <part-group type="start" number="1">
   <group-symbol>brace</group-symbol>
  </part-group>
  <score-part id="P1">
   <part-name>P1</part-name>
   <score-instrument id="P1-I1">
    <instrument-name>Piano (2)</instrument-name>
   </score-instrument>
  </score-part>
  <part-group type="stop" number="1" />
 </part-list>
 <part id="P1">
  <measure number="0" width="149">
   <print new-page="yes">
    <system-layout>
     <system-margins>
      <left-margin>22</left-margin>
      <right-margin>0</right-margin>
     </system-margins>
     <top-system-distance>124</top-system-distance>
    </system-layout>
   </print>
   <attributes>
    <divisions>256</divisions>
    <key color="#000000">
     <fifths>0</fifths>
     <mode>major</mode>
    </key>
    <time color="#000000">
     <beats>4</beats>
     <beat-type>4</beat-type>
    </time>
    <staves>1</staves>
    <clef number="1" color="#000000">
     <sign>G</sign>
     <line>2</line>
    </clef>
    <staff-details number="1" print-object="yes" />
   </attributes>
   <note color="#000000" default-x="86">
    <pitch>
     <step>C</step>
     <octave>4</octave>
    </pitch>
    <duration>128</duration>
    <instrument id="P1-I1" />
    <voice>1</voice>
    <type>eighth</type>
    <stem>up</stem>
    <staff>1</staff>
    <beam number="1">begin</beam>
    <lyric default-y="-80" number="1" color="#000000">
     <syllabic>single</syllabic>
     <text>Se</text>
    </lyric>
   </note>
   <note color="#000000" default-x="118">
    <pitch>
     <step>D</step>
     <octave>4</octave>
    </pitch>
    <duration>128</duration>
    <instrument id="P1-I1" />
    <voice>1</voice>
    <type>eighth</type>
    <stem>up</stem>
    <staff>1</staff>
    <beam number="1">end</beam>
    <lyric default-y="-80" number="1" color="#000000">
     <syllabic>single</syllabic>
     <text>as</text>
    </lyric>
   </note>
  </measure>
  <measure number="1" width="197">
   <direction>
    <direction-type>
     <words default-x="327" default-y="25" justify="center" valign="middle" font-family="Opus Chords Std" font-size="7.0755">C</words>
    </direction-type>
    <voice>1</voice>
    <staff>1</staff>
   </direction>
   <note color="#000000" default-x="15">
    <pitch>
     <step>E</step>
     <octave>4</octave>
    </pitch>
    <duration>256</duration>
    <instrument id="P1-I1" />
    <voice>1</voice>
    <type>quarter</type>
    <stem>up</stem>
    <staff>1</staff>
    <lyric default-y="-80" number="1" color="#000000">
     <syllabic>begin</syllabic>
     <text>on</text>
    </lyric>
   </note>
   <note color="#000000" default-x="58">
    <pitch>
     <step>E</step>
     <octave>4</octave>
    </pitch>
    <duration>512</duration>
    <instrument id="P1-I1" />
    <voice>1</voice>
    <type>half</type>
    <stem>up</stem>
    <staff>1</staff>
    <lyric default-y="-80" number="1" color="#000000">
     <syllabic>end</syllabic>
     <text>das</text>
    </lyric>
   </note>
   <note color="#000000" default-x="132">
    <pitch>
     <step>E</step>
     <octave>4</octave>
    </pitch>
    <duration>128</duration>
    <instrument id="P1-I1" />
    <voice>1</voice>
    <type>eighth</type>
    <stem>up</stem>
    <staff>1</staff>
    <beam number="1">begin</beam>
    <lyric default-y="-80" number="1" color="#000000">
     <syllabic>begin</syllabic>
     <text>des</text>
    </lyric>
   </note>
   <note color="#000000" default-x="165">
    <pitch>
     <step>E</step>
     <octave>4</octave>
    </pitch>
    <duration>128</duration>
    <instrument id="P1-I1" />
    <voice>1</voice>
    <type>eighth</type>
    <stem>up</stem>
    <staff>1</staff>
    <beam number="1">end</beam>
    <lyric default-y="-80" number="1" color="#000000">
     <syllabic>end</syllabic>
     <text>ta</text>
    </lyric>
   </note>
  </measure>
  <measure number="2" width="233">
   <direction>
    <direction-type>
     <words default-x="524" default-y="25" justify="center" valign="middle" font-family="Opus Chords Std" font-size="7.0755">Em</words>
    </direction-type>
    <voice>1</voice>
    <staff>1</staff>
   </direction>
   <note color="#000000" default-x="15">
    <pitch>
     <step>G</step>
     <octave>4</octave>
    </pitch>
    <duration>256</duration>
    <instrument id="P1-I1" />
    <voice>1</voice>
    <type>quarter</type>
    <stem>up</stem>
    <staff>1</staff>
    <lyric default-y="-80" number="1" color="#000000">
     <syllabic>begin</syllabic>
     <text>vi</text>
    </lyric>
   </note>
   <note color="#000000" default-x="58">
    <pitch>
     <step>G</step>
     <octave>4</octave>
    </pitch>
    <duration>256</duration>
    <instrument id="P1-I1" />
    <voice>1</voice>
    <type>quarter</type>
    <stem>up</stem>
    <staff>1</staff>
    <lyric default-y="-80" number="1" color="#000000">
     <syllabic>end</syllabic>
     <text>da</text>
    </lyric>
   </note>
   <note default-x="102">
    <rest />
    <duration>256</duration>
    <instrument id="P1-I1" />
    <voice>1</voice>
    <type>quarter</type>
    <staff>1</staff>
   </note>
   <note color="#000000" default-x="145">
    <pitch>
     <step>G</step>
     <octave>4</octave>
    </pitch>
    <duration>128</duration>
    <instrument id="P1-I1" />
    <voice>1</voice>
    <type>eighth</type>
    <stem>up</stem>
    <staff>1</staff>
    <beam number="1">begin</beam>
    <lyric default-y="-80" number="1" color="#000000">
     <syllabic>begin</syllabic>
     <text>des</text>
    </lyric>
   </note>
   <note color="#000000" default-x="202">
    <pitch>
     <step>G</step>
     <octave>4</octave>
    </pitch>
    <duration>128</duration>
    <instrument id="P1-I1" />
    <voice>1</voice>
    <type>eighth</type>
    <stem>up</stem>
    <staff>1</staff>
    <beam number="1">end</beam>
    <lyric default-y="-80" number="1" color="#000000">
     <syllabic>middle</syllabic>
     <text>tru</text>
    </lyric>
   </note>
  </measure>
  <measure number="3" width="232">
   <direction>
    <direction-type>
     <words default-x="758" default-y="25" justify="center" valign="middle" font-family="Opus Chords Std" font-size="7.0755">F</words>
    </direction-type>
    <voice>1</voice>
    <staff>1</staff>
   </direction>
   <note color="#000000" default-x="15">
    <pitch>
     <step>A</step>
     <octave>4</octave>
    </pitch>
    <duration>384</duration>
    <instrument id="P1-I1" />
    <voice>1</voice>
    <type>quarter</type>
    <dot />
    <stem>up</stem>
    <staff>1</staff>
    <lyric default-y="-80" number="1" color="#000000">
     <syllabic>middle</syllabic>
     <text>í</text>
    </lyric>
   </note>
   <direction>
    <direction-type>
     <words default-x="816" default-y="25" justify="center" valign="middle" font-family="Opus Chords Std" font-size="7.0755">F/G</words>
    </direction-type>
    <voice>1</voice>
    <staff>1</staff>
   </direction>
   <note color="#000000" default-x="73">
    <pitch>
     <step>A</step>
     <octave>4</octave>
    </pitch>
    <duration>128</duration>
    <instrument id="P1-I1" />
    <voice>1</voice>
    <type>eighth</type>
    <stem>up</stem>
    <staff>1</staff>
    <beam number="1">begin</beam>
    <lyric default-y="-80" number="1" color="#000000">
     <syllabic>end</syllabic>
     <text>rem</text>
    </lyric>
   </note>
   <note color="#000000" default-x="145">
    <pitch>
     <step>C</step>
     <octave>4</octave>
    </pitch>
    <duration>256</duration>
    <instrument id="P1-I1" />
    <voice>1</voice>
    <type>quarter</type>
    <stem>up</stem>
    <staff>1</staff>
    <lyric default-y="-80" number="1" color="#000000">
     <syllabic>begin</syllabic>
     <text>tu</text>
    </lyric>
   </note>
   <note color="#000000" default-x="189">
    <pitch>
     <step>D</step>
     <octave>4</octave>
    </pitch>
    <duration>256</duration>
    <instrument id="P1-I1" />
    <voice>1</voice>
    <type>quarter</type>
    <stem>up</stem>
    <staff>1</staff>
    <lyric default-y="-80" number="1" color="#000000">
     <syllabic>end</syllabic>
     <text>a</text>
    </lyric>
   </note>
  </measure>
  <measure number="4" width="165">
   <direction>
    <direction-type>
     <words default-x="991" default-y="25" justify="center" valign="middle" font-family="Opus Chords Std" font-size="7.0755">C</words>
    </direction-type>
    <voice>1</voice>
    <staff>1</staff>
   </direction>
   <note color="#000000" default-x="15">
    <pitch>
     <step>E</step>
     <octave>4</octave>
    </pitch>
    <duration>768</duration>
    <instrument id="P1-I1" />
    <voice>1</voice>
    <type>half</type>
    <dot />
    <stem>up</stem>
    <staff>1</staff>
    <lyric default-y="-80" number="1" color="#000000">
     <syllabic>single</syllabic>
     <text>fé,</text>
    </lyric>
   </note>
   <note color="#000000" default-x="102">
    <pitch>
     <step>E</step>
     <octave>4</octave>
    </pitch>
    <duration>128</duration>
    <instrument id="P1-I1" />
    <voice>1</voice>
    <type>eighth</type>
    <stem>up</stem>
    <staff>1</staff>
    <beam number="1">begin</beam>
    <lyric default-y="-80" number="1" color="#000000">
     <syllabic>single</syllabic>
     <text>E</text>
    </lyric>
   </note>
   <note color="#000000" default-x="134">
    <pitch>
     <step>E</step>
     <octave>4</octave>
    </pitch>
    <duration>128</duration>
    <instrument id="P1-I1" />
    <voice>1</voice>
    <type>eighth</type>
    <stem>up</stem>
    <staff>1</staff>
    <beam number="1">end</beam>
    <lyric default-y="-80" number="1" color="#000000">
     <syllabic>begin</syllabic>
     <text>fi</text>
    </lyric>
   </note>
  </measure>
  <measure number="5" width="196">
   <direction>
    <direction-type>
     <words default-x="1156" default-y="25" justify="center" valign="middle" font-family="Opus Chords Std" font-size="7.0755">E4</words>
    </direction-type>
    <voice>1</voice>
    <staff>1</staff>
   </direction>
   <note color="#000000" default-x="15">
    <pitch>
     <step>E</step>
     <octave>4</octave>
    </pitch>
    <duration>256</duration>
    <instrument id="P1-I1" />
    <voice>1</voice>
    <type>quarter</type>
    <stem>up</stem>
    <staff>1</staff>
    <lyric default-y="-80" number="1" color="#000000">
     <syllabic>middle</syllabic>
     <text>ze</text>
    </lyric>
   </note>
   <note color="#000000" default-x="58">
    <pitch>
     <step>E</step>
     <octave>4</octave>
    </pitch>
    <duration>512</duration>
    <instrument id="P1-I1" />
    <voice>1</voice>
    <type>half</type>
    <stem>up</stem>
    <staff>1</staff>
    <lyric default-y="-80" number="1" color="#000000">
     <syllabic>end</syllabic>
     <text>rem</text>
    </lyric>
   </note>
   <direction>
    <direction-type>
     <words default-x="1232" default-y="25" justify="center" valign="middle" font-family="Opus Chords Std" font-size="7.0755">E</words>
    </direction-type>
    <offset sound="no">-237</offset>
    <voice>1</voice>
    <staff>1</staff>
   </direction>
   <note color="#000000" default-x="132">
    <pitch>
     <step>A</step>
     <octave>4</octave>
    </pitch>
    <duration>128</duration>
    <instrument id="P1-I1" />
    <voice>1</voice>
    <type>eighth</type>
    <stem>up</stem>
    <staff>1</staff>
    <beam number="1">begin</beam>
    <lyric default-y="-80" number="1" color="#000000">
     <syllabic>single</syllabic>
     <text>que</text>
    </lyric>
   </note>
   <note color="#000000" default-x="164">
    <pitch>
     <step>B</step>
     <octave>4</octave>
    </pitch>
    <duration>128</duration>
    <instrument id="P1-I1" />
    <voice>1</voice>
    <type>eighth</type>
    <stem>up</stem>
    <staff>1</staff>
    <beam number="1">end</beam>
    <lyric default-y="-80" number="1" color="#000000">
     <syllabic>begin</syllabic>
     <text>du</text>
    </lyric>
   </note>
  </measure>
  <measure number="6" width="205">
   <direction>
    <direction-type>
     <words default-x="1349" default-y="25" justify="center" valign="middle" font-family="Opus Chords Std" font-size="7.0755">G#7Ø</words>
    </direction-type>
    <voice>1</voice>
    <staff>1</staff>
   </direction>
   <note color="#000000" default-x="15">
    <pitch>
     <step>B</step>
     <octave>4</octave>
    </pitch>
    <duration>256</duration>
    <instrument id="P1-I1" />
    <voice>1</voice>
    <type>quarter</type>
    <stem>down</stem>
    <staff>1</staff>
    <lyric default-y="-80" number="1" color="#000000">
     <syllabic>middle</syllabic>
     <text>vi</text>
    </lyric>
   </note>
   <direction>
    <direction-type>
     <words default-x="1400" default-y="25" justify="center" valign="middle" font-family="Opus Chords Std" font-size="7.0755">Am</words>
    </direction-type>
    <voice>1</voice>
    <staff>1</staff>
   </direction>
   <note color="#000000" default-x="65">
    <pitch>
     <step>C</step>
     <octave>5</octave>
    </pitch>
    <duration>512</duration>
    <instrument id="P1-I1" />
    <voice>1</voice>
    <type>half</type>
    <stem>down</stem>
    <staff>1</staff>
    <lyric default-y="-80" number="1" color="#000000">
     <syllabic>end</syllabic>
     <text>des_de</text>
    </lyric>
   </note>
   <note color="#000000" default-x="139">
    <pitch>
     <step>B</step>
     <octave>4</octave>
    </pitch>
    <duration>128</duration>
    <instrument id="P1-I1" />
    <voice>1</voice>
    <type>eighth</type>
    <stem>down</stem>
    <staff>1</staff>
    <beam number="1">begin</beam>
    <lyric default-y="-80" number="1" color="#000000">
     <syllabic>single</syllabic>
     <text>que</text>
    </lyric>
   </note>
   <note color="#000000" default-x="174">
    <pitch>
     <step>C</step>
     <octave>5</octave>
    </pitch>
    <duration>128</duration>
    <instrument id="P1-I1" />
    <voice>1</voice>
    <type>eighth</type>
    <stem>down</stem>
    <staff>1</staff>
    <beam number="1">end</beam>
    <lyric default-y="-80" number="1" color="#000000">
     <syllabic>single</syllabic>
     <text>em</text>
    </lyric>
   </note>
  </measure>
  <measure number="7" width="196">
   <direction>
    <direction-type>
     <words default-x="1555" default-y="25" justify="center" valign="middle" font-family="Opus Chords Std" font-size="7.0755">Dm</words>
    </direction-type>
    <voice>1</voice>
    <staff>1</staff>
   </direction>
   <note color="#000000" default-x="15">
    <pitch>
     <step>D</step>
     <octave>5</octave>
    </pitch>
    <duration>256</duration>
    <instrument id="P1-I1" />
    <voice>1</voice>
    <type>quarter</type>
    <stem>down</stem>
    <staff>1</staff>
    <lyric default-y="-80" number="1" color="#000000">
     <syllabic>begin</syllabic>
     <text>bre</text>
    </lyric>
   </note>
   <note color="#000000" default-x="58">
    <pitch>
     <step>A</step>
     <octave>4</octave>
    </pitch>
    <duration>512</duration>
    <instrument id="P1-I1" />
    <voice>1</voice>
    <type>half</type>
    <stem>up</stem>
    <staff>1</staff>
    <lyric default-y="-80" number="1" color="#000000">
     <syllabic>end</syllabic>
     <text>ve</text>
    </lyric>
   </note>
   <note color="#000000" default-x="132">
    <pitch>
     <step>F</step>
     <octave>4</octave>
    </pitch>
    <duration>128</duration>
    <instrument id="P1-I1" />
    <voice>1</voice>
    <type>eighth</type>
    <stem>up</stem>
    <staff>1</staff>
    <beam number="1">begin</beam>
    <lyric default-y="-80" number="1" color="#000000">
     <syllabic>begin</syllabic>
     <text>vol</text>
    </lyric>
   </note>
   <note color="#000000" default-x="165">
    <pitch>
     <step>E</step>
     <octave>4</octave>
    </pitch>
    <duration>128</duration>
    <instrument id="P1-I1" />
    <voice>1</voice>
    <type>eighth</type>
    <stem>up</stem>
    <staff>1</staff>
    <beam number="1">end</beam>
    <lyric default-y="-80" number="1" color="#000000">
     <syllabic>middle</syllabic>
     <text>ta</text>
    </lyric>
   </note>
  </measure>
  <measure number="8" width="228">
   <print new-system="yes">
    <system-layout>
     <system-margins>
      <left-margin>22</left-margin>
      <right-margin>0</right-margin>
     </system-margins>
     <system-distance>128</system-distance>
    </system-layout>
   </print>
   <attributes>
    <staff-details number="1" print-object="yes" />
   </attributes>
   <direction>
    <direction-type>
     <words default-x="259" default-y="25" justify="center" valign="middle" font-family="Opus Chords Std" font-size="7.0755">G7</words>
    </direction-type>
    <voice>1</voice>
    <staff>1</staff>
   </direction>
   <note color="#000000" default-x="57">
    <pitch>
     <step>F</step>
     <octave>4</octave>
    </pitch>
    <duration>768</duration>
    <instrument id="P1-I1" />
    <voice>1</voice>
    <type>half</type>
    <dot />
    <stem>up</stem>
    <staff>1</staff>
    <lyric default-y="-80" number="1" color="#000000">
     <syllabic>end</syllabic>
     <text>rei,</text>
    </lyric>
   </note>
   <note color="#000000" default-x="153">
    <pitch>
     <step>C</step>
     <octave>4</octave>
    </pitch>
    <duration>128</duration>
    <instrument id="P1-I1" />
    <voice>1</voice>
    <type>eighth</type>
    <stem>up</stem>
    <staff>1</staff>
    <beam number="1">begin</beam>
    <lyric default-y="-80" number="1" color="#000000">
     <syllabic>single</syllabic>
     <text>Volve</text>
    </lyric>
   </note>
   <note color="#000000" default-x="194">
    <pitch>
     <step>D</step>
     <octave>4</octave>
    </pitch>
    <duration>128</duration>
    <instrument id="P1-I1" />
    <voice>1</voice>
    <type>eighth</type>
    <stem>up</stem>
    <staff>1</staff>
    <beam number="1">end</beam>
    <lyric default-y="-80" number="1" color="#000000">
     <syllabic>single</syllabic>
     <text>os</text>
    </lyric>
   </note>
  </measure>
  <measure number="9" width="212">
   <direction>
    <direction-type>
     <words default-x="402" default-y="25" justify="center" valign="middle" font-family="Opus Chords Std" font-size="7.0755">C</words>
    </direction-type>
    <voice>1</voice>
    <staff>1</staff>
   </direction>
   <note color="#000000" default-x="15">
    <pitch>
     <step>E</step>
     <octave>4</octave>
    </pitch>
    <duration>256</duration>
    <instrument id="P1-I1" />
    <voice>1</voice>
    <type>quarter</type>
    <stem>up</stem>
    <staff>1</staff>
    <lyric default-y="-80" number="1" color="#000000">
     <syllabic>begin</syllabic>
     <text>o</text>
    </lyric>
   </note>
   <note color="#000000" default-x="62">
    <pitch>
     <step>E</step>
     <octave>4</octave>
    </pitch>
    <duration>512</duration>
    <instrument id="P1-I1" />
    <voice>1</voice>
    <type>half</type>
    <stem>up</stem>
    <staff>1</staff>
    <lyric default-y="-80" number="1" color="#000000">
     <syllabic>end</syllabic>
     <text>lhos</text>
    </lyric>
   </note>
   <note color="#000000" default-x="143">
    <pitch>
     <step>E</step>
     <octave>4</octave>
    </pitch>
    <duration>128</duration>
    <instrument id="P1-I1" />
    <voice>1</voice>
    <type>eighth</type>
    <stem>up</stem>
    <staff>1</staff>
    <beam number="1">begin</beam>
    <lyric default-y="-80" number="1" color="#000000">
     <syllabic>single</syllabic>
     <text>ao</text>
    </lyric>
   </note>
   <note color="#000000" default-x="177">
    <pitch>
     <step>E</step>
     <octave>4</octave>
    </pitch>
    <duration>128</duration>
    <instrument id="P1-I1" />
    <voice>1</voice>
    <type>eighth</type>
    <stem>up</stem>
    <staff>1</staff>
    <beam number="1">end</beam>
    <lyric default-y="-80" number="1" color="#000000">
     <syllabic>begin</syllabic>
     <text>pas</text>
    </lyric>
   </note>
  </measure>
  <measure number="10" width="226">
   <direction>
    <direction-type>
     <words default-x="615" default-y="25" justify="center" valign="middle" font-family="Opus Chords Std" font-size="7.0755">Em7</words>
    </direction-type>
    <voice>1</voice>
    <staff>1</staff>
   </direction>
   <note color="#000000" default-x="15">
    <pitch>
     <step>G</step>
     <octave>4</octave>
    </pitch>
    <duration>256</duration>
    <instrument id="P1-I1" />
    <voice>1</voice>
    <type>quarter</type>
    <stem>up</stem>
    <staff>1</staff>
    <lyric default-y="-80" number="1" color="#000000">
     <syllabic>middle</syllabic>
     <text>sa</text>
    </lyric>
   </note>
   <note color="#000000" default-x="62">
    <pitch>
     <step>G</step>
     <octave>4</octave>
    </pitch>
    <duration>256</duration>
    <instrument id="P1-I1" />
    <voice>1</voice>
    <type>quarter</type>
    <stem>up</stem>
    <staff>1</staff>
    <lyric default-y="-80" number="1" color="#000000">
     <syllabic>end</syllabic>
     <text>do,</text>
    </lyric>
   </note>
   <note default-x="110">
    <rest />
    <duration>256</duration>
    <instrument id="P1-I1" />
    <voice>1</voice>
    <type>quarter</type>
    <staff>1</staff>
   </note>
   <note color="#000000" default-x="157">
    <pitch>
     <step>A</step>
     <octave>4</octave>
    </pitch>
    <duration>128</duration>
    <instrument id="P1-I1" />
    <voice>1</voice>
    <type>eighth</type>
    <stem>up</stem>
    <staff>1</staff>
    <beam number="1">begin</beam>
    <lyric default-y="-80" number="1" color="#000000">
     <syllabic>single</syllabic>
     <text>vê</text>
    </lyric>
   </note>
   <note color="#000000" default-x="191">
    <pitch>
     <step>B</step>
     <octave>4</octave>
    </pitch>
    <duration>128</duration>
    <instrument id="P1-I1" />
    <voice>1</voice>
    <type>eighth</type>
    <stem>up</stem>
    <staff>1</staff>
    <beam number="1">end</beam>
    <lyric default-y="-80" number="1" color="#000000">
     <syllabic>single</syllabic>
     <text>na</text>
    </lyric>
   </note>
  </measure>
  <measure number="11" width="208">
   <direction>
    <direction-type>
     <words default-x="841" default-y="25" justify="center" valign="middle" font-family="Opus Chords Std" font-size="7.0755">Am</words>
    </direction-type>
    <voice>1</voice>
    <staff>1</staff>
   </direction>
   <note color="#000000" default-x="15">
    <pitch>
     <step>C</step>
     <octave>5</octave>
    </pitch>
    <duration>384</duration>
    <instrument id="P1-I1" />
    <voice>1</voice>
    <type>quarter</type>
    <dot />
    <stem>down</stem>
    <staff>1</staff>
    <lyric default-y="-80" number="1" color="#000000">
     <syllabic>single</syllabic>
     <text>cruz</text>
    </lyric>
   </note>
   <note color="#000000" default-x="79">
    <pitch>
     <step>C</step>
     <octave>5</octave>
    </pitch>
    <duration>128</duration>
    <instrument id="P1-I1" />
    <voice>1</voice>
    <type>eighth</type>
    <stem>down</stem>
    <staff>1</staff>
    <beam number="1">begin</beam>
    <lyric default-y="-80" number="1" color="#000000">
     <syllabic>single</syllabic>
     <text>o</text>
    </lyric>
   </note>
   <note color="#000000" default-x="113">
    <pitch>
     <step>B</step>
     <octave>4</octave>
    </pitch>
    <duration>256</duration>
    <instrument id="P1-I1" />
    <voice>1</voice>
    <type>quarter</type>
    <stem>down</stem>
    <staff>1</staff>
    <lyric default-y="-80" number="1" color="#000000">
     <syllabic>single</syllabic>
     <text>Meu</text>
    </lyric>
   </note>
   <note color="#000000" default-x="160">
    <pitch>
     <step>C</step>
     <octave>5</octave>
    </pitch>
    <duration>256</duration>
    <instrument id="P1-I1" />
    <voice>1</voice>
    <type>quarter</type>
    <stem>down</stem>
    <staff>1</staff>
    <lyric default-y="-80" number="1" color="#000000">
     <syllabic>begin</syllabic>
     <text>so</text>
    </lyric>
   </note>
  </measure>
  <measure number="12" width="168">
   <direction>
    <direction-type>
     <words default-x="1050" default-y="25" justify="center" valign="middle" font-family="Opus Chords Std" font-size="7.0755">F</words>
    </direction-type>
    <voice>1</voice>
    <staff>1</staff>
   </direction>
   <note color="#000000" default-x="15">
    <pitch>
     <step>C</step>
     <octave>5</octave>
    </pitch>
    <duration>768</duration>
    <instrument id="P1-I1" />
    <voice>1</voice>
    <type>half</type>
    <dot />
    <stem>down</stem>
    <staff>1</staff>
    <lyric default-y="-80" number="1" color="#000000">
     <syllabic>end</syllabic>
     <text>frer.</text>
    </lyric>
   </note>
   <note color="#000000" default-x="90">
    <pitch>
     <step>A</step>
     <octave>4</octave>
    </pitch>
    <duration>128</duration>
    <instrument id="P1-I1" />
    <voice>1</voice>
    <type>eighth</type>
    <stem>up</stem>
    <staff>1</staff>
    <beam number="1">begin</beam>
    <lyric default-y="-80" number="1" color="#000000">
     <syllabic>begin</syllabic>
     <text>Que</text>
    </lyric>
   </note>
   <note color="#000000" default-x="134">
    <pitch>
     <step>B</step>
     <octave>4</octave>
    </pitch>
    <duration>128</duration>
    <instrument id="P1-I1" />
    <voice>1</voice>
    <type>eighth</type>
    <stem>up</stem>
    <staff>1</staff>
    <beam number="1">end</beam>
    <lyric default-y="-80" number="1" color="#000000">
     <syllabic>end</syllabic>
     <text>res</text>
    </lyric>
   </note>
  </measure>
  <measure number="13" width="278">
   <direction>
    <direction-type>
     <words default-x="1218" default-y="25" justify="center" valign="middle" font-family="Opus Chords Std" font-size="7.0755">Dm7</words>
    </direction-type>
    <voice>1</voice>
    <staff>1</staff>
   </direction>
   <note color="#000000" default-x="15">
    <pitch>
     <step>C</step>
     <octave>5</octave>
    </pitch>
    <duration>256</duration>
    <instrument id="P1-I1" />
    <voice>1</voice>
    <type>quarter</type>
    <stem>down</stem>
    <staff>1</staff>
    <lyric default-y="-80" number="1" color="#000000">
     <syllabic>begin</syllabic>
     <text>pro</text>
    </lyric>
   </note>
   <note color="#000000" default-x="79">
    <pitch>
     <step>C</step>
     <octave>5</octave>
    </pitch>
    <duration>256</duration>
    <instrument id="P1-I1" />
    <voice>1</voice>
    <type>quarter</type>
    <stem>down</stem>
    <staff>1</staff>
    <lyric default-y="-80" number="1" color="#000000">
     <syllabic>end</syllabic>
     <text>vas</text>
    </lyric>
   </note>
   <direction>
    <direction-type>
     <words default-x="1340" default-y="25" justify="center" valign="middle" font-family="Opus Chords Std" font-size="7.0755">F</words>
    </direction-type>
    <voice>1</voice>
    <staff>1</staff>
   </direction>
   <note color="#000000" default-x="137">
    <pitch>
     <step>C</step>
     <octave>5</octave>
    </pitch>
    <duration>256</duration>
    <instrument id="P1-I1" />
    <voice>1</voice>
    <type>quarter</type>
    <stem>down</stem>
    <staff>1</staff>
    <lyric default-y="-80" number="1" color="#000000">
     <syllabic>single</syllabic>
     <text>mais</text>
    </lyric>
   </note>
   <direction>
    <direction-type>
     <words default-x="1397" default-y="25" justify="center" valign="middle" font-family="Opus Chords Std" font-size="7.0755">Em7</words>
    </direction-type>
    <voice>1</voice>
    <staff>1</staff>
   </direction>
   <note color="#000000" default-x="184">
    <pitch>
     <step>B</step>
     <octave>4</octave>
    </pitch>
    <duration>128</duration>
    <instrument id="P1-I1" />
    <voice>1</voice>
    <type>eighth</type>
    <stem>up</stem>
    <staff>1</staff>
    <beam number="1">begin</beam>
    <lyric default-y="-80" number="1" color="#000000">
     <syllabic>single</syllabic>
     <text>do</text>
    </lyric>
   </note>
   <note color="#000000" default-x="243">
    <pitch>
     <step>A</step>
     <octave>4</octave>
    </pitch>
    <duration>128</duration>
    <instrument id="P1-I1" />
    <voice>1</voice>
    <type>eighth</type>
    <stem>up</stem>
    <staff>1</staff>
    <beam number="1">end</beam>
    <lyric default-y="-80" number="1" color="#000000">
     <syllabic>single</syllabic>
     <text>que</text>
    </lyric>
   </note>
  </measure>
  <measure number="14" width="255">
   <direction>
    <direction-type>
     <words default-x="1505" default-y="25" justify="center" valign="middle" font-family="Opus Chords Std" font-size="7.0755">C</words>
    </direction-type>
    <voice>1</voice>
    <staff>1</staff>
   </direction>
   <note color="#000000" default-x="15">
    <pitch>
     <step>G</step>
     <octave>4</octave>
    </pitch>
    <duration>256</duration>
    <instrument id="P1-I1" />
    <voice>1</voice>
    <type>quarter</type>
    <stem>up</stem>
    <staff>1</staff>
    <lyric default-y="-80" number="1" color="#000000">
     <syllabic>begin</syllabic>
     <text>es</text>
    </lyric>
   </note>
   <note color="#000000" default-x="62">
    <pitch>
     <step>G</step>
     <octave>4</octave>
    </pitch>
    <duration>256</duration>
    <instrument id="P1-I1" />
    <voice>1</voice>
    <type>quarter</type>
    <stem>up</stem>
    <staff>1</staff>
    <lyric default-y="-80" number="1" color="#000000">
     <syllabic>end</syllabic>
     <text>ta?</text>
    </lyric>
   </note>
   <note default-x="110">
    <rest />
    <duration>256</duration>
    <instrument id="P1-I1" />
    <voice>1</voice>
    <type>quarter</type>
    <staff>1</staff>
   </note>
   <note color="#000000" default-x="157">
    <pitch>
     <step>E</step>
     <octave>4</octave>
    </pitch>
    <duration>128</duration>
    <instrument id="P1-I1" />
    <voice>1</voice>
    <type>eighth</type>
    <stem>up</stem>
    <staff>1</staff>
    <beam number="1">begin</beam>
    <lyric default-y="-80" number="1" color="#000000">
     <syllabic>begin</syllabic>
     <text>Tan</text>
    </lyric>
   </note>
   <note color="#000000" default-x="220">
    <pitch>
     <step>E</step>
     <octave>4</octave>
    </pitch>
    <duration>128</duration>
    <instrument id="P1-I1" />
    <voice>1</voice>
    <type>eighth</type>
    <stem>up</stem>
    <staff>1</staff>
    <beam number="1">end</beam>
    <lyric default-y="-80" number="1" color="#000000">
     <syllabic>end</syllabic>
     <text>to</text>
    </lyric>
   </note>
  </measure>
  <measure number="15" width="334">
   <print new-system="yes">
    <system-layout>
     <system-margins>
      <left-margin>22</left-margin>
      <right-margin>0</right-margin>
     </system-margins>
     <system-distance>135</system-distance>
    </system-layout>
   </print>
   <attributes>
    <staff-details number="1" print-object="yes" />
   </attributes>
   <direction>
    <direction-type>
     <words default-x="268" default-y="25" justify="center" valign="middle" font-family="Opus Chords Std" font-size="7.0755">Bb</words>
    </direction-type>
    <voice>1</voice>
    <staff>1</staff>
   </direction>
   <note color="#000000" default-x="57">
    <pitch>
     <step>F</step>
     <octave>4</octave>
    </pitch>
    <duration>384</duration>
    <instrument id="P1-I1" />
    <voice>1</voice>
    <type>quarter</type>
    <dot />
    <stem>up</stem>
    <staff>1</staff>
    <lyric default-y="-80" number="1" color="#000000">
     <syllabic>single</syllabic>
     <text>amei</text>
    </lyric>
   </note>
   <note color="#000000" default-x="148">
    <pitch>
     <step>F</step>
     <octave>4</octave>
    </pitch>
    <duration>128</duration>
    <instrument id="P1-I1" />
    <voice>1</voice>
    <type>eighth</type>
    <stem>up</stem>
    <staff>1</staff>
    <beam number="1">begin</beam>
    <lyric default-y="-80" number="1" color="#000000">
     <syllabic>single</syllabic>
     <text>que_a</text>
    </lyric>
   </note>
   <direction>
    <direction-type>
     <words default-x="423" default-y="25" justify="center" valign="middle" font-family="Opus Chords Std" font-size="7.0755">Bb/E</words>
    </direction-type>
    <voice>1</voice>
    <staff>1</staff>
   </direction>
   <note color="#000000" default-x="212">
    <pitch>
     <step>E</step>
     <octave>4</octave>
    </pitch>
    <duration>256</duration>
    <instrument id="P1-I1" />
    <voice>1</voice>
    <type>quarter</type>
    <stem>up</stem>
    <staff>1</staff>
    <lyric default-y="-80" number="1" color="#000000">
     <syllabic>begin</syllabic>
     <text>vi</text>
    </lyric>
   </note>
   <note color="#000000" default-x="286">
    <pitch>
     <step>F</step>
     <octave>4</octave>
    </pitch>
    <duration>256</duration>
    <instrument id="P1-I1" />
    <voice>1</voice>
    <type>quarter</type>
    <stem>up</stem>
    <staff>1</staff>
    <lyric default-y="-80" number="1" color="#000000">
     <syllabic>end</syllabic>
     <text>da</text>
    </lyric>
   </note>
  </measure>
  <measure number="16" width="133">
   <direction>
    <direction-type>
     <words default-x="517" default-y="25" justify="center" valign="middle" font-family="Opus Chords Std" font-size="7.0755">G7</words>
    </direction-type>
    <voice>1</voice>
    <staff>1</staff>
   </direction>
   <note color="#000000" default-x="15">
    <pitch>
     <step>D</step>
     <octave>4</octave>
    </pitch>
    <duration>768</duration>
    <instrument id="P1-I1" />
    <voice>1</voice>
    <type>half</type>
    <dot />
    <stem>up</stem>
    <staff>1</staff>
    <lyric default-y="-80" number="1" color="#000000">
     <syllabic>single</syllabic>
     <text>dei!</text>
    </lyric>
   </note>
   <barline location="right">
    <repeat direction="backward" />
   </barline>
  </measure>
  <measure number="17" width="83">
   <note color="#000000" default-x="15">
    <pitch>
     <step>G</step>
     <octave>4</octave>
    </pitch>
    <duration>128</duration>
    <instrument id="P1-I1" />
    <voice>1</voice>
    <type>eighth</type>
    <stem>up</stem>
    <staff>1</staff>
    <beam number="1">begin</beam>
    <lyric default-y="-80" number="1" color="#000000">
     <syllabic>single</syllabic>
     <text>Mas</text>
    </lyric>
   </note>
   <note color="#000000" default-x="49">
    <pitch>
     <step>G</step>
     <octave>4</octave>
    </pitch>
    <duration>128</duration>
    <instrument id="P1-I1" />
    <voice>1</voice>
    <type>eighth</type>
    <stem>up</stem>
    <staff>1</staff>
    <beam number="1">end</beam>
    <lyric default-y="-80" number="1" color="#000000">
     <syllabic>begin</syllabic>
     <text>a</text>
    </lyric>
   </note>
  </measure>
  <measure number="18" width="210">
   <direction>
    <direction-type>
     <words default-x="734" default-y="25" justify="center" valign="middle" font-family="Opus Chords Std" font-size="7.0755">C</words>
    </direction-type>
    <voice>1</voice>
    <staff>1</staff>
   </direction>
   <note color="#000000" default-x="15">
    <pitch>
     <step>G</step>
     <octave>4</octave>
    </pitch>
    <duration>256</duration>
    <instrument id="P1-I1" />
    <voice>1</voice>
    <type>quarter</type>
    <stem>up</stem>
    <staff>1</staff>
    <lyric default-y="-80" number="1" color="#000000">
     <syllabic>middle</syllabic>
     <text>in</text>
    </lyric>
   </note>
   <note color="#000000" default-x="62">
    <pitch>
     <step>C</step>
     <octave>5</octave>
    </pitch>
    <duration>512</duration>
    <instrument id="P1-I1" />
    <voice>1</voice>
    <type>half</type>
    <stem>down</stem>
    <staff>1</staff>
    <lyric default-y="-80" number="1" color="#000000">
     <syllabic>end</syllabic>
     <text>da</text>
    </lyric>
   </note>
   <note color="#000000" default-x="142">
    <pitch>
     <step>B</step>
     <octave>4</octave>
    </pitch>
    <duration>128</duration>
    <instrument id="P1-I1" />
    <voice>1</voice>
    <type>eighth</type>
    <stem>down</stem>
    <staff>1</staff>
    <beam number="1">begin</beam>
    <lyric default-y="-80" number="1" color="#000000">
     <syllabic>single</syllabic>
     <text>que</text>
    </lyric>
   </note>
   <note color="#000000" default-x="176">
    <pitch>
     <step>C</step>
     <octave>5</octave>
    </pitch>
    <duration>128</duration>
    <instrument id="P1-I1" />
    <voice>1</voice>
    <type>eighth</type>
    <stem>down</stem>
    <staff>1</staff>
    <beam number="1">end</beam>
    <lyric default-y="-80" number="1" color="#000000">
     <syllabic>begin</syllabic>
     <text>de</text>
    </lyric>
   </note>
  </measure>
  <measure number="19" width="210">
   <direction>
    <direction-type>
     <words default-x="945" default-y="25" justify="center" valign="middle" font-family="Opus Chords Std" font-size="7.0755">G</words>
    </direction-type>
    <voice>1</voice>
    <staff>1</staff>
   </direction>
   <note color="#000000" default-x="15">
    <pitch>
     <step>D</step>
     <octave>5</octave>
    </pitch>
    <duration>256</duration>
    <instrument id="P1-I1" />
    <voice>1</voice>
    <type>quarter</type>
    <stem>down</stem>
    <staff>1</staff>
    <lyric default-y="-80" number="1" color="#000000">
     <syllabic>middle</syllabic>
     <text>mo</text>
    </lyric>
   </note>
   <note color="#000000" default-x="62">
    <pitch>
     <step>G</step>
     <octave>4</octave>
    </pitch>
    <duration>512</duration>
    <instrument id="P1-I1" />
    <voice>1</voice>
    <type>half</type>
    <stem>up</stem>
    <staff>1</staff>
    <lyric default-y="-80" number="1" color="#000000">
     <syllabic>end</syllabic>
     <text>re</text>
     <extend />
    </lyric>
   </note>
   <note default-x="142">
    <rest />
    <duration>128</duration>
    <instrument id="P1-I1" />
    <voice>1</voice>
    <type>eighth</type>
    <staff>1</staff>
   </note>
   <note color="#000000" default-x="176">
    <pitch>
     <step>G</step>
     <octave>4</octave>
    </pitch>
    <duration>128</duration>
    <instrument id="P1-I1" />
    <voice>1</voice>
    <type>eighth</type>
    <stem>up</stem>
    <staff>1</staff>
    <beam number="1">begin</beam>
    <lyric default-y="-80" number="1" color="#000000">
     <syllabic>single</syllabic>
     <text>ou</text>
    </lyric>
   </note>
  </measure>
  <measure number="20" width="210">
   <direction>
    <direction-type>
     <words default-x="1147" default-y="25" justify="center" valign="middle" font-family="Opus Chords Std" font-size="7.0755">G7</words>
    </direction-type>
    <voice>1</voice>
    <staff>1</staff>
   </direction>
   <note color="#000000" default-x="15">
    <pitch>
     <step>G</step>
     <octave>4</octave>
    </pitch>
    <duration>256</duration>
    <instrument id="P1-I1" />
    <voice>1</voice>
    <type>quarter</type>
    <stem>up</stem>
    <staff>1</staff>
    <lyric default-y="-80" number="1" color="#000000">
     <syllabic>begin</syllabic>
     <text>mes</text>
    </lyric>
   </note>
   <note color="#000000" default-x="62">
    <pitch>
     <step>B</step>
     <octave>4</octave>
    </pitch>
    <duration>512</duration>
    <instrument id="P1-I1" />
    <voice>1</voice>
    <type>half</type>
    <stem>down</stem>
    <staff>1</staff>
    <lyric default-y="-80" number="1" color="#000000">
     <syllabic>end</syllabic>
     <text>mo</text>
    </lyric>
   </note>
   <note color="#000000" default-x="142">
    <pitch>
     <step>A</step>
     <octave>4</octave>
    </pitch>
    <duration>128</duration>
    <instrument id="P1-I1" />
    <voice>1</voice>
    <type>eighth</type>
    <stem>up</stem>
    <staff>1</staff>
    <beam number="1">begin</beam>
    <lyric default-y="-80" number="1" color="#000000">
     <syllabic>single</syllabic>
     <text>que</text>
    </lyric>
   </note>
   <note color="#000000" default-x="176">
    <pitch>
     <step>B</step>
     <octave>4</octave>
    </pitch>
    <duration>128</duration>
    <instrument id="P1-I1" />
    <voice>1</voice>
    <type>eighth</type>
    <stem>up</stem>
    <staff>1</staff>
    <beam number="1">end</beam>
    <lyric default-y="-80" number="1" color="#000000">
     <syllabic>begin</syllabic>
     <text>pa</text>
    </lyric>
   </note>
  </measure>
  <measure number="21" width="190">
   <direction>
    <direction-type>
     <words default-x="1358" default-y="25" justify="center" valign="middle" font-family="Opus Chords Std" font-size="7.0755">F</words>
    </direction-type>
    <voice>1</voice>
    <staff>1</staff>
   </direction>
   <note color="#000000" default-x="15">
    <pitch>
     <step>C</step>
     <octave>5</octave>
    </pitch>
    <duration>256</duration>
    <instrument id="P1-I1" />
    <voice>1</voice>
    <type>quarter</type>
    <stem>down</stem>
    <staff>1</staff>
    <lyric default-y="-80" number="1" color="#000000">
     <syllabic>middle</syllabic>
     <text>re</text>
    </lyric>
   </note>
   <direction>
    <direction-type>
     <words default-x="1405" default-y="25" justify="center" valign="middle" font-family="Opus Chords Std" font-size="7.0755">C</words>
    </direction-type>
    <voice>1</voice>
    <staff>1</staff>
   </direction>
   <note color="#000000" default-x="62">
    <pitch>
     <step>G</step>
     <octave>4</octave>
    </pitch>
    <duration>512</duration>
    <instrument id="P1-I1" />
    <voice>1</voice>
    <type>half</type>
    <stem>up</stem>
    <staff>1</staff>
    <lyric default-y="-80" number="1" color="#000000">
     <syllabic>end</syllabic>
     <text>ça,</text>
    </lyric>
   </note>
   <note color="#000000" default-x="142">
    <pitch>
     <step>G</step>
     <octave>4</octave>
    </pitch>
    <duration>256</duration>
    <instrument id="P1-I1" />
    <voice>1</voice>
    <type>quarter</type>
    <stem>up</stem>
    <staff>1</staff>
    <lyric default-y="-80" number="1" color="#000000">
     <syllabic>single</syllabic>
     <text>Um</text>
    </lyric>
   </note>
  </measure>
  <measure number="22" width="204">
   <direction>
    <direction-type>
     <words default-x="1548" default-y="25" justify="center" valign="middle" font-family="Opus Chords Std" font-size="7.0755">Dm7</words>
    </direction-type>
    <voice>1</voice>
    <staff>1</staff>
   </direction>
   <note color="#000000" default-x="15">
    <pitch>
     <step>F</step>
     <octave>4</octave>
    </pitch>
    <duration>256</duration>
    <instrument id="P1-I1" />
    <voice>1</voice>
    <type>quarter</type>
    <stem>up</stem>
    <staff>1</staff>
    <lyric default-y="-80" number="1" color="#000000">
     <syllabic>begin</syllabic>
     <text>di</text>
    </lyric>
   </note>
   <note color="#000000" default-x="62">
    <pitch>
     <step>F</step>
     <octave>4</octave>
    </pitch>
    <duration>256</duration>
    <instrument id="P1-I1" />
    <voice>1</voice>
    <type>quarter</type>
    <stem>up</stem>
    <staff>1</staff>
    <lyric default-y="-80" number="1" color="#000000">
     <syllabic>end</syllabic>
     <text>a</text>
    </lyric>
   </note>
   <direction>
    <direction-type>
     <words default-x="1642" default-y="25" justify="center" valign="middle" font-family="Opus Chords Std" font-size="7.0755">G7</words>
    </direction-type>
    <voice>1</voice>
    <staff>1</staff>
   </direction>
   <note color="#000000" default-x="109">
    <pitch>
     <step>F</step>
     <octave>4</octave>
    </pitch>
    <duration>256</duration>
    <instrument id="P1-I1" />
    <voice>1</voice>
    <type>quarter</type>
    <stem>up</stem>
    <staff>1</staff>
    <lyric default-y="-80" number="1" color="#000000">
     <syllabic>begin</syllabic>
     <text>pro</text>
    </lyric>
   </note>
   <note color="#000000" default-x="156">
    <pitch>
     <step>F</step>
     <octave>4</octave>
    </pitch>
    <duration>256</duration>
    <instrument id="P1-I1" />
    <voice>1</voice>
    <type>quarter</type>
    <stem>up</stem>
    <staff>1</staff>
    <lyric default-y="-80" number="1" color="#000000">
     <syllabic>middle</syllabic>
     <text>me</text>
    </lyric>
   </note>
  </measure>
  <measure number="23" width="341">
   <print new-system="yes">
    <system-layout>
     <system-margins>
      <left-margin>22</left-margin>
      <right-margin>0</right-margin>
     </system-margins>
     <system-distance>135</system-distance>
    </system-layout>
   </print>
   <attributes>
    <staff-details number="1" print-object="yes" />
   </attributes>
   <direction>
    <direction-type>
     <words default-x="259" default-y="25" justify="center" valign="middle" font-family="Opus Chords Std" font-size="7.0755">C</words>
    </direction-type>
    <voice>1</voice>
    <staff>1</staff>
   </direction>
   <note color="#000000" default-x="57">
    <pitch>
     <step>E</step>
     <octave>4</octave>
    </pitch>
    <duration>384</duration>
    <instrument id="P1-I1" />
    <voice>1</voice>
    <type>quarter</type>
    <dot />
    <stem>up</stem>
    <staff>1</staff>
    <lyric default-y="-80" number="1" color="#000000">
     <syllabic>end</syllabic>
     <text>ti</text>
    </lyric>
   </note>
   <note color="#000000" default-x="151">
    <pitch>
     <step>F</step>
     <octave>4</octave>
    </pitch>
    <duration>128</duration>
    <instrument id="P1-I1" />
    <voice>1</voice>
    <type>eighth</type>
    <stem>up</stem>
    <staff>1</staff>
    <beam number="1">begin</beam>
    <lyric default-y="-80" number="1" color="#000000">
     <syllabic>begin</syllabic>
     <text>vol</text>
    </lyric>
   </note>
   <note color="#000000" default-x="201">
    <pitch>
     <step>G</step>
     <octave>4</octave>
    </pitch>
    <duration>256</duration>
    <instrument id="P1-I1" />
    <voice>1</voice>
    <type>quarter</type>
    <stem>up</stem>
    <staff>1</staff>
    <lyric default-y="-80" number="1" color="#000000">
     <syllabic>end</syllabic>
     <text>tar</text>
    </lyric>
   </note>
   <note color="#000000" default-x="271">
    <pitch>
     <step>G</step>
     <octave>4</octave>
    </pitch>
    <duration>256</duration>
    <instrument id="P1-I1" />
    <voice>1</voice>
    <type>quarter</type>
    <stem>up</stem>
    <staff>1</staff>
    <lyric default-y="-80" number="1" color="#000000">
     <syllabic>single</syllabic>
     <text>e</text>
    </lyric>
   </note>
  </measure>
  <measure number="24" width="325">
   <direction>
    <direction-type>
     <words default-x="515" default-y="25" justify="center" valign="middle" font-family="Opus Chords Std" font-size="7.0755">F</words>
    </direction-type>
    <voice>1</voice>
    <staff>1</staff>
   </direction>
   <note color="#000000" default-x="15">
    <pitch>
     <step>A</step>
     <octave>4</octave>
    </pitch>
    <duration>256</duration>
    <instrument id="P1-I1" />
    <voice>1</voice>
    <type>quarter</type>
    <stem>up</stem>
    <staff>1</staff>
    <lyric default-y="-80" number="1" color="#000000">
     <syllabic>begin</syllabic>
     <text>pron</text>
    </lyric>
   </note>
   <note color="#000000" default-x="84">
    <pitch>
     <step>A</step>
     <octave>4</octave>
    </pitch>
    <duration>256</duration>
    <instrument id="P1-I1" />
    <voice>1</voice>
    <type>quarter</type>
    <stem>up</stem>
    <staff>1</staff>
    <lyric default-y="-80" number="1" color="#000000">
     <syllabic>middle</syllabic>
     <text>to_es</text>
    </lyric>
   </note>
   <direction>
    <direction-type>
     <words default-x="655" default-y="25" justify="center" valign="middle" font-family="Opus Chords Std" font-size="7.0755">D7</words>
    </direction-type>
    <voice>1</voice>
    <staff>1</staff>
   </direction>
   <note color="#000000" default-x="154">
    <pitch>
     <step>A</step>
     <octave>4</octave>
    </pitch>
    <duration>256</duration>
    <instrument id="P1-I1" />
    <voice>1</voice>
    <type>quarter</type>
    <stem>up</stem>
    <staff>1</staff>
    <lyric default-y="-80" number="1" color="#000000">
     <syllabic>end</syllabic>
     <text>tou</text>
    </lyric>
   </note>
   <note color="#000000" default-x="224">
    <pitch>
     <step>B</step>
     <octave>4</octave>
    </pitch>
    <duration>128</duration>
    <instrument id="P1-I1" />
    <voice>1</voice>
    <type>eighth</type>
    <stem>down</stem>
    <staff>1</staff>
    <beam number="1">begin</beam>
    <lyric default-y="-80" number="1" color="#000000">
     <syllabic>single</syllabic>
     <text>a</text>
    </lyric>
   </note>
   <note color="#000000" default-x="274">
    <pitch>
     <step>C</step>
     <octave>5</octave>
    </pitch>
    <duration>128</duration>
    <instrument id="P1-I1" />
    <voice>1</voice>
    <type>eighth</type>
    <stem>down</stem>
    <staff>1</staff>
    <beam number="1">end</beam>
    <lyric default-y="-80" number="1" color="#000000">
     <syllabic>begin</syllabic>
     <text>cum</text>
    </lyric>
   </note>
  </measure>
  <measure number="25" width="304">
   <direction>
    <direction-type>
     <words default-x="840" default-y="25" justify="center" valign="middle" font-family="Opus Chords Std" font-size="7.0755">G4</words>
    </direction-type>
    <voice>1</voice>
    <staff>1</staff>
   </direction>
   <note color="#000000" default-x="15">
    <pitch>
     <step>D</step>
     <octave>5</octave>
    </pitch>
    <duration>512</duration>
    <tie type="start" />
    <instrument id="P1-I1" />
    <voice>1</voice>
    <type>half</type>
    <stem>down</stem>
    <staff>1</staff>
    <notations>
     <tied type="start" />
    </notations>
    <lyric default-y="-80" number="1" color="#000000">
     <syllabic>single</syllabic>
     <text>prir.</text>
     <extend />
    </lyric>
   </note>
   <direction>
    <direction-type>
     <words default-x="985" default-y="25" justify="center" valign="middle" font-family="Opus Chords Std" font-size="7.0755">G7</words>
    </direction-type>
    <offset sound="no">113</offset>
    <voice>1</voice>
    <staff>1</staff>
   </direction>
   <note color="#000000" default-x="133">
    <pitch>
     <step>D</step>
     <octave>5</octave>
    </pitch>
    <duration>256</duration>
    <tie type="stop" />
    <instrument id="P1-I1" />
    <voice>1</voice>
    <type>quarter</type>
    <stem>down</stem>
    <staff>1</staff>
    <notations>
     <tied type="stop" />
    </notations>
   </note>
   <note color="#000000" default-x="203">
    <pitch>
     <step>G</step>
     <octave>4</octave>
    </pitch>
    <duration>128</duration>
    <instrument id="P1-I1" />
    <voice>1</voice>
    <type>eighth</type>
    <stem>up</stem>
    <staff>1</staff>
    <beam number="1">begin</beam>
    <lyric default-y="-80" number="1" color="#000000">
     <syllabic>single</syllabic>
     <text>Mas</text>
    </lyric>
   </note>
   <note color="#000000" default-x="253">
    <pitch>
     <step>G</step>
     <octave>4</octave>
    </pitch>
    <duration>128</duration>
    <instrument id="P1-I1" />
    <voice>1</voice>
    <type>eighth</type>
    <stem>up</stem>
    <staff>1</staff>
    <beam number="1">end</beam>
    <lyric default-y="-80" number="1" color="#000000">
     <syllabic>begin</syllabic>
     <text>a</text>
    </lyric>
   </note>
  </measure>
  <measure number="26" width="303">
   <direction>
    <direction-type>
     <words default-x="1140" default-y="25" justify="center" valign="middle" font-family="Opus Chords Std" font-size="7.0755">C</words>
    </direction-type>
    <voice>1</voice>
    <staff>1</staff>
   </direction>
   <note color="#000000" default-x="15">
    <pitch>
     <step>G</step>
     <octave>4</octave>
    </pitch>
    <duration>256</duration>
    <instrument id="P1-I1" />
    <voice>1</voice>
    <type>quarter</type>
    <stem>up</stem>
    <staff>1</staff>
    <lyric default-y="-80" number="1" color="#000000">
     <syllabic>middle</syllabic>
     <text>in</text>
    </lyric>
   </note>
   <note color="#000000" default-x="84">
    <pitch>
     <step>C</step>
     <octave>5</octave>
    </pitch>
    <duration>512</duration>
    <instrument id="P1-I1" />
    <voice>1</voice>
    <type>half</type>
    <stem>down</stem>
    <staff>1</staff>
    <lyric default-y="-80" number="1" color="#000000">
     <syllabic>end</syllabic>
     <text>da</text>
    </lyric>
   </note>
   <note color="#000000" default-x="202">
    <pitch>
     <step>B</step>
     <octave>4</octave>
    </pitch>
    <duration>128</duration>
    <instrument id="P1-I1" />
    <voice>1</voice>
    <type>eighth</type>
    <stem>down</stem>
    <staff>1</staff>
    <beam number="1">begin</beam>
    <lyric default-y="-80" number="1" color="#000000">
     <syllabic>single</syllabic>
     <text>que</text>
    </lyric>
   </note>
   <note color="#000000" default-x="253">
    <pitch>
     <step>C</step>
     <octave>5</octave>
    </pitch>
    <duration>128</duration>
    <instrument id="P1-I1" />
    <voice>1</voice>
    <type>eighth</type>
    <stem>down</stem>
    <staff>1</staff>
    <beam number="1">end</beam>
    <lyric default-y="-80" number="1" color="#000000">
     <syllabic>begin</syllabic>
     <text>de</text>
    </lyric>
   </note>
  </measure>
  <measure number="27" width="303">
   <direction>
    <direction-type>
     <words default-x="1444" default-y="25" justify="center" valign="middle" font-family="Opus Chords Std" font-size="7.0755">G</words>
    </direction-type>
    <voice>1</voice>
    <staff>1</staff>
   </direction>
   <note color="#000000" default-x="15">
    <pitch>
     <step>D</step>
     <octave>5</octave>
    </pitch>
    <duration>256</duration>
    <instrument id="P1-I1" />
    <voice>1</voice>
    <type>quarter</type>
    <stem>down</stem>
    <staff>1</staff>
    <lyric default-y="-80" number="1" color="#000000">
     <syllabic>middle</syllabic>
     <text>mo</text>
    </lyric>
   </note>
   <note color="#000000" default-x="84">
    <pitch>
     <step>G</step>
     <octave>4</octave>
    </pitch>
    <duration>512</duration>
    <instrument id="P1-I1" />
    <voice>1</voice>
    <type>half</type>
    <stem>up</stem>
    <staff>1</staff>
    <lyric default-y="-80" number="1" color="#000000">
     <syllabic>end</syllabic>
     <text>re</text>
     <extend />
    </lyric>
   </note>
   <note default-x="202">
    <rest />
    <duration>128</duration>
    <instrument id="P1-I1" />
    <voice>1</voice>
    <type>eighth</type>
    <staff>1</staff>
   </note>
   <note color="#000000" default-x="253">
    <pitch>
     <step>G</step>
     <octave>4</octave>
    </pitch>
    <duration>128</duration>
    <instrument id="P1-I1" />
    <voice>1</voice>
    <type>eighth</type>
    <stem>up</stem>
    <staff>1</staff>
    <beam number="1">begin</beam>
    <lyric default-y="-80" number="1" color="#000000">
     <syllabic>single</syllabic>
     <text>ou</text>
    </lyric>
   </note>
  </measure>
  <measure number="28" width="338">
   <print new-system="yes">
    <system-layout>
     <system-margins>
      <left-margin>22</left-margin>
      <right-margin>0</right-margin>
     </system-margins>
     <system-distance>130</system-distance>
    </system-layout>
   </print>
   <attributes>
    <staff-details number="1" print-object="yes" />
   </attributes>
   <direction>
    <direction-type>
     <words default-x="255" default-y="25" justify="center" valign="middle" font-family="Opus Chords Std" font-size="7.0755">Bb2</words>
    </direction-type>
    <voice>1</voice>
    <staff>1</staff>
   </direction>
   <note color="#000000" default-x="57">
    <pitch>
     <step>C</step>
     <octave>5</octave>
    </pitch>
    <duration>256</duration>
    <instrument id="P1-I1" />
    <voice>1</voice>
    <type>quarter</type>
    <stem>down</stem>
    <staff>1</staff>
    <lyric default-y="-80" number="1" color="#000000">
     <syllabic>begin</syllabic>
     <text>mes</text>
    </lyric>
   </note>
   <note color="#000000" default-x="120">
    <pitch>
     <step>C</step>
     <octave>5</octave>
    </pitch>
    <duration>256</duration>
    <tie type="start" />
    <instrument id="P1-I1" />
    <voice>1</voice>
    <type>quarter</type>
    <stem>down</stem>
    <staff>1</staff>
    <notations>
     <tied type="start" />
    </notations>
    <lyric default-y="-80" number="1" color="#000000">
     <syllabic>end</syllabic>
     <text>mo</text>
     <extend />
    </lyric>
   </note>
   <note color="#000000" default-x="184">
    <pitch>
     <step>C</step>
     <octave>5</octave>
    </pitch>
    <duration>256</duration>
    <tie type="stop" />
    <instrument id="P1-I1" />
    <voice>1</voice>
    <type>quarter</type>
    <stem>down</stem>
    <staff>1</staff>
    <notations>
     <tied type="stop" />
    </notations>
   </note>
   <note color="#000000" default-x="247">
    <pitch>
     <step>F</step>
     <octave>5</octave>
    </pitch>
    <duration>128</duration>
    <instrument id="P1-I1" />
    <voice>1</voice>
    <type>eighth</type>
    <stem>down</stem>
    <staff>1</staff>
    <beam number="1">begin</beam>
    <lyric default-y="-80" number="1" color="#000000">
     <syllabic>single</syllabic>
     <text>que</text>
    </lyric>
   </note>
   <direction>
    <direction-type>
     <words default-x="491" default-y="25" justify="center" valign="middle" font-family="Opus Chords Std" font-size="7.0755">Bb</words>
    </direction-type>
    <voice>1</voice>
    <staff>1</staff>
   </direction>
   <note color="#000000" default-x="293">
    <pitch>
     <step>E</step>
     <octave>5</octave>
    </pitch>
    <duration>128</duration>
    <instrument id="P1-I1" />
    <voice>1</voice>
    <type>eighth</type>
    <stem>down</stem>
    <staff>1</staff>
    <beam number="1">end</beam>
    <lyric default-y="-80" number="1" color="#000000">
     <syllabic>begin</syllabic>
     <text>pa</text>
    </lyric>
   </note>
  </measure>
  <measure number="29" width="248">
   <direction>
    <direction-type>
     <words default-x="509" default-y="25" justify="center" valign="middle" font-family="Opus Chords Std" font-size="7.0755">F</words>
    </direction-type>
    <voice>1</voice>
    <staff>1</staff>
   </direction>
   <note color="#000000" default-x="15">
    <pitch>
     <step>D</step>
     <octave>5</octave>
    </pitch>
    <duration>256</duration>
    <instrument id="P1-I1" />
    <voice>1</voice>
    <type>quarter</type>
    <stem>down</stem>
    <staff>1</staff>
    <lyric default-y="-80" number="1" color="#000000">
     <syllabic>middle</syllabic>
     <text>re</text>
    </lyric>
   </note>
   <note color="#000000" default-x="78">
    <pitch>
     <step>C</step>
     <octave>5</octave>
    </pitch>
    <duration>512</duration>
    <instrument id="P1-I1" />
    <voice>1</voice>
    <type>half</type>
    <stem>down</stem>
    <staff>1</staff>
    <lyric default-y="-80" number="1" color="#000000">
     <syllabic>end</syllabic>
     <text>ça,</text>
    </lyric>
   </note>
   <direction>
    <direction-type>
     <words default-x="680" default-y="25" justify="center" valign="middle" font-family="Opus Chords Std" font-size="7.0755">Dm7</words>
    </direction-type>
    <voice>1</voice>
    <staff>1</staff>
   </direction>
   <note color="#000000" default-x="185">
    <pitch>
     <step>C</step>
     <octave>5</octave>
    </pitch>
    <duration>256</duration>
    <instrument id="P1-I1" />
    <voice>1</voice>
    <type>quarter</type>
    <stem>down</stem>
    <staff>1</staff>
    <lyric default-y="-80" number="1" color="#000000">
     <syllabic>single</syllabic>
     <text>Eu</text>
    </lyric>
   </note>
  </measure>
  <measure number="30" width="306">
   <note color="#000000" default-x="15">
    <pitch>
     <step>C</step>
     <octave>5</octave>
    </pitch>
    <duration>256</duration>
    <instrument id="P1-I1" />
    <voice>1</voice>
    <type>quarter</type>
    <stem>down</stem>
    <staff>1</staff>
    <lyric default-y="-80" number="1" color="#000000">
     <syllabic>single</syllabic>
     <text>não</text>
    </lyric>
   </note>
   <note color="#000000" default-x="78">
    <pitch>
     <step>C</step>
     <octave>5</octave>
    </pitch>
    <duration>128</duration>
    <instrument id="P1-I1" />
    <voice>1</voice>
    <type>eighth</type>
    <stem>down</stem>
    <staff>1</staff>
    <beam number="1">begin</beam>
    <lyric default-y="-80" number="1" color="#000000">
     <syllabic>begin</syllabic>
     <text>me_es</text>
    </lyric>
   </note>
   <note color="#000000" default-x="134">
    <pitch>
     <step>C</step>
     <octave>5</octave>
    </pitch>
    <duration>128</duration>
    <instrument id="P1-I1" />
    <voice>1</voice>
    <type>eighth</type>
    <stem>down</stem>
    <staff>1</staff>
    <beam number="1">end</beam>
    <lyric default-y="-80" number="1" color="#000000">
     <syllabic>middle</syllabic>
     <text>que</text>
    </lyric>
   </note>
   <direction>
    <direction-type>
     <words default-x="923" default-y="25" justify="center" valign="middle" font-family="Opus Chords Std" font-size="7.0755">G</words>
    </direction-type>
    <voice>1</voice>
    <staff>1</staff>
   </direction>
   <note color="#000000" default-x="180">
    <pitch>
     <step>B</step>
     <octave>4</octave>
    </pitch>
    <duration>256</duration>
    <instrument id="P1-I1" />
    <voice>1</voice>
    <type>quarter</type>
    <stem>down</stem>
    <staff>1</staff>
    <lyric default-y="-80" number="1" color="#000000">
     <syllabic>end</syllabic>
     <text>ci</text>
    </lyric>
   </note>
   <note color="#000000" default-x="243">
    <pitch>
     <step>A</step>
     <octave>4</octave>
    </pitch>
    <duration>256</duration>
    <instrument id="P1-I1" />
    <voice>1</voice>
    <type>quarter</type>
    <stem>up</stem>
    <staff>1</staff>
    <lyric default-y="-80" number="1" color="#000000">
     <syllabic>single</syllabic>
     <text>de</text>
    </lyric>
   </note>
  </measure>
  <measure number="31" width="205">
   <direction>
    <direction-type>
     <words default-x="1069" default-y="25" justify="center" valign="middle" font-family="Opus Chords Std" font-size="7.0755">Em7</words>
    </direction-type>
    <voice>1</voice>
    <staff>1</staff>
   </direction>
   <note color="#000000" default-x="15">
    <pitch>
     <step>G</step>
     <octave>4</octave>
    </pitch>
    <duration>768</duration>
    <instrument id="P1-I1" />
    <voice>1</voice>
    <type>half</type>
    <dot />
    <stem>up</stem>
    <staff>1</staff>
    <lyric default-y="-80" number="1" color="#000000">
     <syllabic>single</syllabic>
     <text>ti:</text>
    </lyric>
   </note>
   <direction>
    <direction-type>
     <words default-x="1145" default-y="25" justify="center" valign="middle" font-family="Opus Chords Std" font-size="7.0755">A7</words>
    </direction-type>
    <offset sound="no">-286</offset>
    <voice>1</voice>
    <staff>1</staff>
   </direction>
   <note color="#000000" default-x="142">
    <pitch>
     <step>G</step>
     <octave>4</octave>
    </pitch>
    <duration>256</duration>
    <instrument id="P1-I1" />
    <voice>1</voice>
    <type>quarter</type>
    <stem>up</stem>
    <staff>1</staff>
    <lyric default-y="-80" number="1" color="#000000">
     <syllabic>begin</syllabic>
     <text>vi</text>
    </lyric>
   </note>
  </measure>
  <measure number="32" width="248">
   <direction>
    <direction-type>
     <words default-x="1272" default-y="25" justify="center" valign="middle" font-family="Opus Chords Std" font-size="7.0755">Dm7</words>
    </direction-type>
    <voice>1</voice>
    <staff>1</staff>
   </direction>
   <note color="#000000" default-x="15">
    <pitch>
     <step>A</step>
     <octave>4</octave>
    </pitch>
    <duration>512</duration>
    <instrument id="P1-I1" />
    <voice>1</voice>
    <type>half</type>
    <stem>up</stem>
    <staff>1</staff>
    <lyric default-y="-80" number="1" color="#000000">
     <syllabic>end</syllabic>
     <text>rei</text>
    </lyric>
   </note>
   <direction>
    <direction-type>
     <words default-x="1382" default-y="25" justify="center" valign="middle" font-family="Opus Chords Std" font-size="7.0755">F</words>
    </direction-type>
    <voice>1</voice>
    <staff>1</staff>
   </direction>
   <note color="#000000" default-x="122">
    <pitch>
     <step>A</step>
     <octave>4</octave>
    </pitch>
    <duration>256</duration>
    <instrument id="P1-I1" />
    <voice>1</voice>
    <type>quarter</type>
    <stem>up</stem>
    <staff>1</staff>
    <lyric default-y="-80" number="1" color="#000000">
     <syllabic>begin</syllabic>
     <text>ou</text>
    </lyric>
   </note>
   <note color="#000000" default-x="185">
    <pitch>
     <step>C</step>
     <octave>5</octave>
    </pitch>
    <duration>256</duration>
    <instrument id="P1-I1" />
    <voice>1</voice>
    <type>quarter</type>
    <stem>down</stem>
    <staff>1</staff>
    <lyric default-y="-80" number="1" color="#000000">
     <syllabic>end</syllabic>
     <text>tra</text>
    </lyric>
   </note>
  </measure>
  <measure number="33" width="229">
   <direction>
    <direction-type>
     <words default-x="1530" default-y="25" justify="center" valign="middle" font-family="Opus Chords Std" font-size="7.0755">C</words>
    </direction-type>
    <voice>1</voice>
    <staff>1</staff>
   </direction>
   <note color="#000000" default-x="15">
    <pitch>
     <step>C</step>
     <octave>5</octave>
    </pitch>
    <duration>768</duration>
    <instrument id="P1-I1" />
    <voice>1</voice>
    <type>half</type>
    <dot />
    <stem>down</stem>
    <staff>1</staff>
    <lyric default-y="-80" number="1" color="#000000">
     <syllabic>single</syllabic>
     <text>vez.</text>
    </lyric>
   </note>
   <forward>
    <duration>256</duration>
   </forward>
   <barline location="right">
    <repeat direction="backward" />
   </barline>
  </measure>
 </part>
</score-partwise>
