<?xml version="1.0" encoding='UTF-8' standalone='no' ?>
<!DOCTYPE score-partwise PUBLIC "-//Recordare//DTD MusicXML 2.0 Partwise//EN" "http://www.musicxml.org/dtds/partwise.dtd">
<score-partwise version="2.0">
 <work>
  <work-title>Vou Caminhando</work-title>
 </work>
 <identification>
  <creator type="composer">Alexandre Reichert Fº</creator>
  <creator type="lyricist">Wilson F. Almeida</creator>
  <rights>Copyright © </rights>
  <encoding>
   <encoding-date>2016-03-04</encoding-date>
   <encoder>Miguel Nunes</encoder>
   <software>Sibelius 7.0.0</software>
   <software>Direct export, not from Dolet</software>
   <encoding-description>Sibelius / MusicXML 2.0</encoding-description>
   <supports element="print" type="yes" value="yes" attribute="new-system" />
   <supports element="print" type="yes" value="yes" attribute="new-page" />
   <supports element="accidental" type="yes" />
   <supports element="beam" type="yes" />
   <supports element="stem" type="yes" />
  </encoding>
 </identification>
 <defaults>
  <scaling>
   <millimeters>210</millimeters>
   <tenths>1866</tenths>
  </scaling>
  <page-layout>
   <page-height>1324</page-height>
   <page-width>1866</page-width>
   <page-margins type="both">
    <left-margin>133</left-margin>
    <right-margin>133</right-margin>
    <top-margin>88</top-margin>
    <bottom-margin>44</bottom-margin>
   </page-margins>
  </page-layout>
  <system-layout>
   <system-margins>
    <left-margin>21</left-margin>
    <right-margin>0</right-margin>
   </system-margins>
   <system-distance>92</system-distance>
  </system-layout>
  <appearance>
   <line-width type="stem">0.9375</line-width>
   <line-width type="beam">5</line-width>
   <line-width type="staff">0.9375</line-width>
   <line-width type="light barline">1.5625</line-width>
   <line-width type="heavy barline">5</line-width>
   <line-width type="leger">1.5625</line-width>
   <line-width type="ending">1.5625</line-width>
   <line-width type="wedge">1.25</line-width>
   <line-width type="enclosure">0.9375</line-width>
   <line-width type="tuplet bracket">1.25</line-width>
   <line-width type="bracket">5</line-width>
   <line-width type="dashes">1.5625</line-width>
   <line-width type="extend">0.9375</line-width>
   <line-width type="octave shift">1.5625</line-width>
   <line-width type="pedal">1.5625</line-width>
   <line-width type="slur middle">1.5625</line-width>
   <line-width type="slur tip">0.625</line-width>
   <line-width type="tie middle">1.5625</line-width>
   <line-width type="tie tip">0.625</line-width>
   <note-size type="cue">75</note-size>
   <note-size type="grace">60</note-size>
  </appearance>
  <music-font font-family="Helsinki Std" font-size="12.7559" />
  <lyric-font font-family="Georgia" font-size="6.7766" />
  <lyric-language xml:lang="en" />
 </defaults>
 <part-list>
  <score-part id="P1">
   <part-name>P1</part-name>
   <score-instrument id="P1-I1">
    <instrument-name>Soprano</instrument-name>
   </score-instrument>
  </score-part>
 </part-list>
 <part id="P1">
  <measure number="1" width="504">
   <print new-page="yes">
    <system-layout>
     <system-margins>
      <left-margin>22</left-margin>
      <right-margin>0</right-margin>
     </system-margins>
     <top-system-distance>77</top-system-distance>
    </system-layout>
   </print>
   <attributes>
    <divisions>256</divisions>
    <key color="#000000">
     <fifths>4</fifths>
     <mode>major</mode>
    </key>
    <time symbol="cut" color="#000000">
     <beats>2</beats>
     <beat-type>2</beat-type>
    </time>
    <staves>1</staves>
    <clef number="1" color="#000000">
     <sign>G</sign>
     <line>2</line>
    </clef>
    <staff-details number="1" print-object="yes" />
   </attributes>
   <direction>
    <direction-type>
     <words default-x="385" default-y="27" justify="center" valign="middle" font-family="Opus Chords Std" font-size="7.0755">E</words>
    </direction-type>
    <voice>1</voice>
    <staff>1</staff>
   </direction>
   <direction>
    <direction-type>
     <metronome color="#000000" font-family="Georgia" font-size="7.0755">
      <beat-unit>quarter</beat-unit>
      <per-minute>132</per-minute>
     </metronome>
    </direction-type>
    <voice>1</voice>
    <staff>1</staff>
   </direction>
   <note color="#000000" default-x="130">
    <pitch>
     <step>G</step>
     <alter>1</alter>
     <octave>4</octave>
    </pitch>
    <duration>128</duration>
    <instrument id="P1-I1" />
    <voice>1</voice>
    <type>eighth</type>
    <stem>up</stem>
    <staff>1</staff>
    <beam number="1">begin</beam>
    <lyric default-y="-80" number="1" color="#000000">
     <syllabic>single</syllabic>
     <text>Vou</text>
    </lyric>
   </note>
   <note color="#000000" default-x="190">
    <pitch>
     <step>A</step>
     <octave>4</octave>
    </pitch>
    <duration>128</duration>
    <instrument id="P1-I1" />
    <voice>1</voice>
    <type>eighth</type>
    <stem>up</stem>
    <staff>1</staff>
    <beam number="1">end</beam>
    <lyric default-y="-80" number="1" color="#000000">
     <syllabic>begin</syllabic>
     <text>ca</text>
    </lyric>
   </note>
   <note color="#000000" default-x="251">
    <pitch>
     <step>B</step>
     <octave>4</octave>
    </pitch>
    <duration>256</duration>
    <instrument id="P1-I1" />
    <voice>1</voice>
    <type>quarter</type>
    <stem>up</stem>
    <staff>1</staff>
    <lyric default-y="-80" number="1" color="#000000">
     <syllabic>middle</syllabic>
     <text>mi</text>
    </lyric>
   </note>
   <direction>
    <direction-type>
     <words default-x="586" default-y="27" justify="center" valign="middle" font-family="Opus Chords Std" font-size="7.0755">B/D#</words>
    </direction-type>
    <voice>1</voice>
    <staff>1</staff>
   </direction>
   <note color="#000000" default-x="335">
    <pitch>
     <step>B</step>
     <octave>4</octave>
    </pitch>
    <duration>256</duration>
    <instrument id="P1-I1" />
    <voice>1</voice>
    <type>quarter</type>
    <stem>up</stem>
    <staff>1</staff>
    <lyric default-y="-80" number="1" color="#000000">
     <syllabic>middle</syllabic>
     <text>nhan</text>
    </lyric>
   </note>
   <note color="#000000" default-x="420">
    <pitch>
     <step>F</step>
     <alter>1</alter>
     <octave>4</octave>
    </pitch>
    <duration>256</duration>
    <instrument id="P1-I1" />
    <voice>1</voice>
    <type>quarter</type>
    <stem>up</stem>
    <staff>1</staff>
    <lyric default-y="-80" number="1" color="#000000">
     <syllabic>end</syllabic>
     <text>do,</text>
    </lyric>
   </note>
  </measure>
  <measure number="2" width="389">
   <direction>
    <direction-type>
     <words default-x="681" default-y="27" justify="center" valign="middle" font-family="Opus Chords Std" font-size="7.0755">C#m</words>
    </direction-type>
    <voice>1</voice>
    <staff>1</staff>
   </direction>
   <note color="#000000" default-x="15">
    <pitch>
     <step>E</step>
     <octave>4</octave>
    </pitch>
    <duration>128</duration>
    <instrument id="P1-I1" />
    <voice>1</voice>
    <type>eighth</type>
    <stem>up</stem>
    <staff>1</staff>
    <beam number="1">begin</beam>
    <lyric default-y="-80" number="1" color="#000000">
     <syllabic>begin</syllabic>
     <text>sem</text>
    </lyric>
   </note>
   <note color="#000000" default-x="75">
    <pitch>
     <step>F</step>
     <alter>1</alter>
     <octave>4</octave>
    </pitch>
    <duration>128</duration>
    <instrument id="P1-I1" />
    <voice>1</voice>
    <type>eighth</type>
    <stem>up</stem>
    <staff>1</staff>
    <beam number="1">end</beam>
    <lyric default-y="-80" number="1" color="#000000">
     <syllabic>end</syllabic>
     <text>pre</text>
    </lyric>
   </note>
   <note color="#000000" default-x="136">
    <pitch>
     <step>G</step>
     <alter>1</alter>
     <octave>4</octave>
    </pitch>
    <duration>256</duration>
    <instrument id="P1-I1" />
    <voice>1</voice>
    <type>quarter</type>
    <stem>up</stem>
    <staff>1</staff>
    <lyric default-y="-80" number="1" color="#000000">
     <syllabic>begin</syllabic>
     <text>con</text>
    </lyric>
   </note>
   <direction>
    <direction-type>
     <words default-x="887" default-y="27" justify="center" valign="middle" font-family="Opus Chords Std" font-size="7.0755">G#m/B</words>
    </direction-type>
    <voice>1</voice>
    <staff>1</staff>
   </direction>
   <note color="#000000" default-x="220">
    <pitch>
     <step>G</step>
     <alter>1</alter>
     <octave>4</octave>
    </pitch>
    <duration>256</duration>
    <instrument id="P1-I1" />
    <voice>1</voice>
    <type>quarter</type>
    <stem>up</stem>
    <staff>1</staff>
    <lyric default-y="-80" number="1" color="#000000">
     <syllabic>middle</syllabic>
     <text>ten</text>
    </lyric>
   </note>
   <note color="#000000" default-x="305">
    <pitch>
     <step>D</step>
     <alter>1</alter>
     <octave>4</octave>
    </pitch>
    <duration>256</duration>
    <instrument id="P1-I1" />
    <voice>1</voice>
    <type>quarter</type>
    <stem>up</stem>
    <staff>1</staff>
    <lyric default-y="-80" number="1" color="#000000">
     <syllabic>end</syllabic>
     <text>te,</text>
    </lyric>
   </note>
  </measure>
  <measure number="3" width="356">
   <direction>
    <direction-type>
     <words default-x="1075" default-y="27" justify="center" valign="middle" font-family="Opus Chords Std" font-size="7.0755">A</words>
    </direction-type>
    <voice>1</voice>
    <staff>1</staff>
   </direction>
   <note color="#000000" default-x="19">
    <pitch>
     <step>C</step>
     <alter>1</alter>
     <octave>4</octave>
    </pitch>
    <duration>256</duration>
    <instrument id="P1-I1" />
    <voice>1</voice>
    <type>quarter</type>
    <stem>up</stem>
    <staff>1</staff>
    <lyric default-y="-80" number="1" color="#000000">
     <syllabic>begin</syllabic>
     <text>pe</text>
    </lyric>
   </note>
   <note color="#000000" default-x="103">
    <pitch>
     <step>E</step>
     <octave>4</octave>
    </pitch>
    <duration>256</duration>
    <instrument id="P1-I1" />
    <voice>1</voice>
    <type>quarter</type>
    <stem>up</stem>
    <staff>1</staff>
    <lyric default-y="-80" number="1" color="#000000">
     <syllabic>middle</syllabic>
     <text>la_es</text>
    </lyric>
   </note>
   <direction>
    <direction-type>
     <words default-x="1243" default-y="27" justify="center" valign="middle" font-family="Opus Chords Std" font-size="7.0755">F#m7</words>
    </direction-type>
    <voice>1</voice>
    <staff>1</staff>
   </direction>
   <note color="#000000" default-x="187">
    <pitch>
     <step>A</step>
     <octave>4</octave>
    </pitch>
    <duration>256</duration>
    <instrument id="P1-I1" />
    <voice>1</voice>
    <type>quarter</type>
    <stem>up</stem>
    <staff>1</staff>
    <lyric default-y="-80" number="1" color="#000000">
     <syllabic>middle</syllabic>
     <text>tra</text>
    </lyric>
   </note>
   <note color="#000000" default-x="272">
    <pitch>
     <step>G</step>
     <alter>1</alter>
     <octave>4</octave>
    </pitch>
    <duration>256</duration>
    <instrument id="P1-I1" />
    <voice>1</voice>
    <type>quarter</type>
    <stem>up</stem>
    <staff>1</staff>
    <lyric default-y="-80" number="1" color="#000000">
     <syllabic>end</syllabic>
     <text>da</text>
    </lyric>
   </note>
  </measure>
  <measure number="4" width="328">
   <direction>
    <direction-type>
     <words default-x="1429" default-y="27" justify="center" valign="middle" font-family="Opus Chords Std" font-size="7.0755">A#Ø</words>
    </direction-type>
    <voice>1</voice>
    <staff>1</staff>
   </direction>
   <note color="#000000" default-x="17">
    <pitch>
     <step>G</step>
     <alter>1</alter>
     <octave>4</octave>
    </pitch>
    <duration>256</duration>
    <instrument id="P1-I1" />
    <voice>1</voice>
    <type>quarter</type>
    <stem>up</stem>
    <staff>1</staff>
    <lyric default-y="-80" number="1" color="#000000">
     <syllabic>begin</syllabic>
     <text>ru</text>
    </lyric>
   </note>
   <note color="#000000" default-x="101">
    <pitch>
     <step>F</step>
     <alter>1</alter>
     <octave>4</octave>
    </pitch>
    <duration>256</duration>
    <instrument id="P1-I1" />
    <voice>1</voice>
    <type>quarter</type>
    <stem>up</stem>
    <staff>1</staff>
    <lyric default-y="-80" number="1" color="#000000">
     <syllabic>end</syllabic>
     <text>mo_ao</text>
    </lyric>
   </note>
   <direction>
    <direction-type>
     <words default-x="1597" default-y="27" justify="center" valign="middle" font-family="Opus Chords Std" font-size="7.0755">B</words>
    </direction-type>
    <voice>1</voice>
    <staff>1</staff>
   </direction>
   <note color="#000000" default-x="185">
    <pitch>
     <step>F</step>
     <alter>1</alter>
     <octave>4</octave>
    </pitch>
    <duration>512</duration>
    <instrument id="P1-I1" />
    <voice>1</voice>
    <type>half</type>
    <stem>up</stem>
    <staff>1</staff>
    <lyric default-y="-80" number="1" color="#000000">
     <syllabic>single</syllabic>
     <text>céu.</text>
    </lyric>
   </note>
  </measure>
  <measure number="5" width="486">
   <print new-system="yes">
    <system-layout>
     <system-margins>
      <left-margin>22</left-margin>
      <right-margin>0</right-margin>
     </system-margins>
     <system-distance>110</system-distance>
    </system-layout>
   </print>
   <attributes>
    <staff-details number="1" print-object="yes" />
   </attributes>
   <direction>
    <direction-type>
     <words default-x="365" default-y="27" justify="center" valign="middle" font-family="Opus Chords Std" font-size="7.0755">E</words>
    </direction-type>
    <voice>1</voice>
    <staff>1</staff>
   </direction>
   <note color="#000000" default-x="110">
    <pitch>
     <step>G</step>
     <alter>1</alter>
     <octave>4</octave>
    </pitch>
    <duration>128</duration>
    <instrument id="P1-I1" />
    <voice>1</voice>
    <type>eighth</type>
    <stem>up</stem>
    <staff>1</staff>
    <beam number="1">begin</beam>
    <lyric default-y="-80" number="1" color="#000000">
     <syllabic>single</syllabic>
     <text>Não</text>
    </lyric>
   </note>
   <note color="#000000" default-x="171">
    <pitch>
     <step>A</step>
     <octave>4</octave>
    </pitch>
    <duration>128</duration>
    <instrument id="P1-I1" />
    <voice>1</voice>
    <type>eighth</type>
    <stem>up</stem>
    <staff>1</staff>
    <beam number="1">end</beam>
    <lyric default-y="-80" number="1" color="#000000">
     <syllabic>begin</syllabic>
     <text>te</text>
    </lyric>
   </note>
   <note color="#000000" default-x="232">
    <pitch>
     <step>B</step>
     <octave>4</octave>
    </pitch>
    <duration>256</duration>
    <instrument id="P1-I1" />
    <voice>1</voice>
    <type>quarter</type>
    <stem>up</stem>
    <staff>1</staff>
    <lyric default-y="-80" number="1" color="#000000">
     <syllabic>end</syllabic>
     <text>nho</text>
    </lyric>
   </note>
   <direction>
    <direction-type>
     <words default-x="567" default-y="27" justify="center" valign="middle" font-family="Opus Chords Std" font-size="7.0755">B/D#</words>
    </direction-type>
    <voice>1</voice>
    <staff>1</staff>
   </direction>
   <note color="#000000" default-x="316">
    <pitch>
     <step>B</step>
     <octave>4</octave>
    </pitch>
    <duration>256</duration>
    <instrument id="P1-I1" />
    <voice>1</voice>
    <type>quarter</type>
    <stem>up</stem>
    <staff>1</staff>
    <lyric default-y="-80" number="1" color="#000000">
     <syllabic>begin</syllabic>
     <text>me</text>
    </lyric>
   </note>
   <note color="#000000" default-x="401">
    <pitch>
     <step>F</step>
     <alter>1</alter>
     <octave>4</octave>
    </pitch>
    <duration>256</duration>
    <instrument id="P1-I1" />
    <voice>1</voice>
    <type>quarter</type>
    <stem>up</stem>
    <staff>1</staff>
    <lyric default-y="-80" number="1" color="#000000">
     <syllabic>end</syllabic>
     <text>do,</text>
    </lyric>
   </note>
  </measure>
  <measure number="6" width="391">
   <direction>
    <direction-type>
     <words default-x="664" default-y="27" justify="center" valign="middle" font-family="Opus Chords Std" font-size="7.0755">C#m</words>
    </direction-type>
    <voice>1</voice>
    <staff>1</staff>
   </direction>
   <note color="#000000" default-x="15">
    <pitch>
     <step>E</step>
     <octave>4</octave>
    </pitch>
    <duration>128</duration>
    <instrument id="P1-I1" />
    <voice>1</voice>
    <type>eighth</type>
    <stem>up</stem>
    <staff>1</staff>
    <beam number="1">begin</beam>
    <lyric default-y="-80" number="1" color="#000000">
     <syllabic>single</syllabic>
     <text>vou</text>
    </lyric>
   </note>
   <note color="#000000" default-x="76">
    <pitch>
     <step>F</step>
     <alter>1</alter>
     <octave>4</octave>
    </pitch>
    <duration>128</duration>
    <instrument id="P1-I1" />
    <voice>1</voice>
    <type>eighth</type>
    <stem>up</stem>
    <staff>1</staff>
    <beam number="1">end</beam>
    <lyric default-y="-80" number="1" color="#000000">
     <syllabic>begin</syllabic>
     <text>con</text>
    </lyric>
   </note>
   <note color="#000000" default-x="137">
    <pitch>
     <step>G</step>
     <alter>1</alter>
     <octave>4</octave>
    </pitch>
    <duration>256</duration>
    <instrument id="P1-I1" />
    <voice>1</voice>
    <type>quarter</type>
    <stem>up</stem>
    <staff>1</staff>
    <lyric default-y="-80" number="1" color="#000000">
     <syllabic>middle</syllabic>
     <text>fi</text>
    </lyric>
   </note>
   <direction>
    <direction-type>
     <words default-x="870" default-y="27" justify="center" valign="middle" font-family="Opus Chords Std" font-size="7.0755">G#m/B</words>
    </direction-type>
    <voice>1</voice>
    <staff>1</staff>
   </direction>
   <note color="#000000" default-x="221">
    <pitch>
     <step>G</step>
     <alter>1</alter>
     <octave>4</octave>
    </pitch>
    <duration>256</duration>
    <instrument id="P1-I1" />
    <voice>1</voice>
    <type>quarter</type>
    <stem>up</stem>
    <staff>1</staff>
    <lyric default-y="-80" number="1" color="#000000">
     <syllabic>middle</syllabic>
     <text>an</text>
    </lyric>
   </note>
   <note color="#000000" default-x="306">
    <pitch>
     <step>D</step>
     <alter>1</alter>
     <octave>4</octave>
    </pitch>
    <duration>256</duration>
    <instrument id="P1-I1" />
    <voice>1</voice>
    <type>quarter</type>
    <stem>up</stem>
    <staff>1</staff>
    <lyric default-y="-80" number="1" color="#000000">
     <syllabic>end</syllabic>
     <text>te,</text>
    </lyric>
   </note>
  </measure>
  <measure number="7" width="358">
   <direction>
    <direction-type>
     <words default-x="1060" default-y="27" justify="center" valign="middle" font-family="Opus Chords Std" font-size="7.0755">A</words>
    </direction-type>
    <voice>1</voice>
    <staff>1</staff>
   </direction>
   <note color="#000000" default-x="19">
    <pitch>
     <step>C</step>
     <alter>1</alter>
     <octave>4</octave>
    </pitch>
    <duration>256</duration>
    <instrument id="P1-I1" />
    <voice>1</voice>
    <type>quarter</type>
    <stem>up</stem>
    <staff>1</staff>
    <lyric default-y="-80" number="1" color="#000000">
     <syllabic>single</syllabic>
     <text>pois</text>
    </lyric>
   </note>
   <note color="#000000" default-x="104">
    <pitch>
     <step>E</step>
     <octave>4</octave>
    </pitch>
    <duration>256</duration>
    <instrument id="P1-I1" />
    <voice>1</voice>
    <type>quarter</type>
    <stem>up</stem>
    <staff>1</staff>
    <lyric default-y="-80" number="1" color="#000000">
     <syllabic>begin</syllabic>
     <text>Je</text>
    </lyric>
   </note>
   <direction>
    <direction-type>
     <words default-x="1229" default-y="27" justify="center" valign="middle" font-family="Opus Chords Std" font-size="7.0755">F#m7</words>
    </direction-type>
    <voice>1</voice>
    <staff>1</staff>
   </direction>
   <note color="#000000" default-x="189">
    <pitch>
     <step>A</step>
     <octave>4</octave>
    </pitch>
    <duration>256</duration>
    <instrument id="P1-I1" />
    <voice>1</voice>
    <type>quarter</type>
    <stem>up</stem>
    <staff>1</staff>
    <lyric default-y="-80" number="1" color="#000000">
     <syllabic>end</syllabic>
     <text>sus</text>
    </lyric>
   </note>
   <note color="#000000" default-x="273">
    <pitch>
     <step>G</step>
     <alter>1</alter>
     <octave>4</octave>
    </pitch>
    <duration>256</duration>
    <instrument id="P1-I1" />
    <voice>1</voice>
    <type>quarter</type>
    <stem>up</stem>
    <staff>1</staff>
    <lyric default-y="-80" number="1" color="#000000">
     <syllabic>begin</syllabic>
     <text>co</text>
    </lyric>
   </note>
  </measure>
  <measure number="8" width="342">
   <direction>
    <direction-type>
     <words default-x="1415" default-y="27" justify="center" valign="middle" font-family="Opus Chords Std" font-size="7.0755">Bsus7</words>
    </direction-type>
    <voice>1</voice>
    <staff>1</staff>
   </direction>
   <note color="#000000" default-x="17">
    <pitch>
     <step>F</step>
     <alter>1</alter>
     <octave>4</octave>
    </pitch>
    <duration>256</duration>
    <instrument id="P1-I1" />
    <voice>1</voice>
    <type>quarter</type>
    <stem>up</stem>
    <staff>1</staff>
    <lyric default-y="-80" number="1" color="#000000">
     <syllabic>middle</syllabic>
     <text>mi</text>
    </lyric>
   </note>
   <direction>
    <direction-type>
     <words default-x="1500" default-y="27" justify="center" valign="middle" font-family="Opus Chords Std" font-size="7.0755">B7</words>
    </direction-type>
    <voice>1</voice>
    <staff>1</staff>
   </direction>
   <note color="#000000" default-x="102">
    <pitch>
     <step>F</step>
     <alter>1</alter>
     <octave>4</octave>
    </pitch>
    <duration>256</duration>
    <instrument id="P1-I1" />
    <voice>1</voice>
    <type>quarter</type>
    <stem>up</stem>
    <staff>1</staff>
    <lyric default-y="-80" number="1" color="#000000">
     <syllabic>middle</syllabic>
     <text>go_es</text>
    </lyric>
   </note>
   <direction>
    <direction-type>
     <words default-x="1585" default-y="27" justify="center" valign="middle" font-family="Opus Chords Std" font-size="7.0755">E</words>
    </direction-type>
    <voice>1</voice>
    <staff>1</staff>
   </direction>
   <note color="#000000" default-x="186">
    <pitch>
     <step>E</step>
     <octave>4</octave>
    </pitch>
    <duration>512</duration>
    <instrument id="P1-I1" />
    <voice>1</voice>
    <type>half</type>
    <stem>up</stem>
    <staff>1</staff>
    <lyric default-y="-80" number="1" color="#000000">
     <syllabic>end</syllabic>
     <text>tá.</text>
    </lyric>
   </note>
   <barline>
    <bar-style>light-light</bar-style>
   </barline>
  </measure>
  <measure number="9" width="420">
   <print new-system="yes">
    <system-layout>
     <system-margins>
      <left-margin>22</left-margin>
      <right-margin>0</right-margin>
     </system-margins>
     <system-distance>111</system-distance>
    </system-layout>
   </print>
   <attributes>
    <staff-details number="1" print-object="yes" />
   </attributes>
   <direction>
    <direction-type>
     <words default-x="365" default-y="27" justify="center" valign="middle" font-family="Opus Chords Std" font-size="7.0755">A</words>
    </direction-type>
    <voice>1</voice>
    <staff>1</staff>
   </direction>
   <note color="#000000" default-x="110">
    <pitch>
     <step>C</step>
     <alter>1</alter>
     <octave>5</octave>
    </pitch>
    <duration>512</duration>
    <instrument id="P1-I1" />
    <voice>1</voice>
    <type>half</type>
    <stem>down</stem>
    <staff>1</staff>
    <lyric default-y="-80" number="1" color="#000000">
     <syllabic>begin</syllabic>
     <text>Quan</text>
    </lyric>
   </note>
   <direction>
    <direction-type>
     <words default-x="520" default-y="27" justify="center" valign="middle" font-family="Opus Chords Std" font-size="7.0755">B7/A</words>
    </direction-type>
    <voice>1</voice>
    <staff>1</staff>
   </direction>
   <note color="#000000" default-x="265">
    <pitch>
     <step>A</step>
     <octave>4</octave>
    </pitch>
    <duration>512</duration>
    <instrument id="P1-I1" />
    <voice>1</voice>
    <type>half</type>
    <stem>up</stem>
    <staff>1</staff>
    <lyric default-y="-80" number="1" color="#000000">
     <syllabic>end</syllabic>
     <text>do</text>
    </lyric>
   </note>
  </measure>
  <measure number="10" width="394">
   <direction>
    <direction-type>
     <words default-x="598" default-y="25" justify="center" valign="middle" font-family="Opus Chords Std" font-size="7.0755">E</words>
    </direction-type>
    <voice>1</voice>
    <staff>1</staff>
   </direction>
   <note color="#000000" default-x="15">
    <pitch>
     <step>B</step>
     <octave>4</octave>
    </pitch>
    <duration>128</duration>
    <instrument id="P1-I1" />
    <voice>1</voice>
    <type>eighth</type>
    <stem>down</stem>
    <staff>1</staff>
    <beam number="1">begin</beam>
    <lyric default-y="-80" number="1" color="#000000">
     <syllabic>begin</syllabic>
     <text>fra</text>
    </lyric>
   </note>
   <note color="#000000" default-x="81">
    <pitch>
     <step>C</step>
     <alter>1</alter>
     <octave>5</octave>
    </pitch>
    <duration>128</duration>
    <instrument id="P1-I1" />
    <voice>1</voice>
    <type>eighth</type>
    <stem>down</stem>
    <staff>1</staff>
    <beam number="1">end</beam>
    <lyric default-y="-80" number="1" color="#000000">
     <syllabic>end</syllabic>
     <text>co</text>
    </lyric>
   </note>
   <direction>
    <direction-type>
     <words default-x="718" default-y="27" justify="center" valign="middle" font-family="Opus Chords Std" font-size="7.0755">G#m</words>
    </direction-type>
    <voice>1</voice>
    <staff>1</staff>
   </direction>
   <note color="#000000" default-x="147">
    <pitch>
     <step>B</step>
     <octave>4</octave>
    </pitch>
    <duration>256</duration>
    <instrument id="P1-I1" />
    <voice>1</voice>
    <type>quarter</type>
    <stem>up</stem>
    <staff>1</staff>
    <lyric default-y="-80" number="1" color="#000000">
     <syllabic>begin</syllabic>
     <text>es</text>
    </lyric>
   </note>
   <direction>
    <direction-type>
     <words default-x="822" default-y="27" justify="center" valign="middle" font-family="Opus Chords Std" font-size="7.0755">C#m7</words>
    </direction-type>
    <voice>1</voice>
    <staff>1</staff>
   </direction>
   <note color="#000000" default-x="238">
    <pitch>
     <step>G</step>
     <alter>1</alter>
     <octave>4</octave>
    </pitch>
    <duration>512</duration>
    <instrument id="P1-I1" />
    <voice>1</voice>
    <type>half</type>
    <stem>up</stem>
    <staff>1</staff>
    <lyric default-y="-80" number="1" color="#000000">
     <syllabic>end</syllabic>
     <text>tou,</text>
    </lyric>
   </note>
  </measure>
  <measure number="11" width="325">
   <direction>
    <direction-type>
     <words default-x="992" default-y="27" justify="center" valign="middle" font-family="Opus Chords Std" font-size="7.0755">F#m</words>
    </direction-type>
    <voice>1</voice>
    <staff>1</staff>
   </direction>
   <note color="#000000" default-x="15">
    <pitch>
     <step>A</step>
     <octave>4</octave>
    </pitch>
    <duration>512</duration>
    <instrument id="P1-I1" />
    <voice>1</voice>
    <type>half</type>
    <stem>up</stem>
    <staff>1</staff>
    <lyric default-y="-80" number="1" color="#000000">
     <syllabic>begin</syllabic>
     <text>Cris</text>
    </lyric>
   </note>
   <direction>
    <direction-type>
     <words default-x="1147" default-y="27" justify="center" valign="middle" font-family="Opus Chords Std" font-size="7.0755">B</words>
    </direction-type>
    <voice>1</voice>
    <staff>1</staff>
   </direction>
   <note color="#000000" default-x="170">
    <pitch>
     <step>F</step>
     <alter>1</alter>
     <octave>4</octave>
    </pitch>
    <duration>512</duration>
    <instrument id="P1-I1" />
    <voice>1</voice>
    <type>half</type>
    <stem>up</stem>
    <staff>1</staff>
    <lyric default-y="-80" number="1" color="#000000">
     <syllabic>end</syllabic>
     <text>to</text>
    </lyric>
   </note>
  </measure>
  <measure number="12" width="437">
   <direction>
    <direction-type>
     <words default-x="1320" default-y="27" justify="center" valign="middle" font-family="Opus Chords Std" font-size="7.0755">E</words>
    </direction-type>
    <voice>1</voice>
    <staff>1</staff>
   </direction>
   <note color="#000000" default-x="17">
    <pitch>
     <step>G</step>
     <alter>1</alter>
     <octave>4</octave>
    </pitch>
    <duration>128</duration>
    <instrument id="P1-I1" />
    <voice>1</voice>
    <type>eighth</type>
    <stem>up</stem>
    <staff>1</staff>
    <beam number="1">begin</beam>
    <lyric default-y="-80" number="1" color="#000000">
     <syllabic>begin</syllabic>
     <text>dá</text>
    </lyric>
   </note>
   <note color="#000000" default-x="83">
    <pitch>
     <step>F</step>
     <alter>1</alter>
     <octave>4</octave>
    </pitch>
    <duration>128</duration>
    <instrument id="P1-I1" />
    <voice>1</voice>
    <type>eighth</type>
    <stem>up</stem>
    <staff>1</staff>
    <beam number="1">continue</beam>
    <lyric default-y="-80" number="1" color="#000000">
     <syllabic>end</syllabic>
     <text>me</text>
    </lyric>
   </note>
   <direction>
    <direction-type>
     <words default-x="1452" default-y="27" justify="center" valign="middle" font-family="Opus Chords Std" font-size="7.0755">E7+</words>
    </direction-type>
    <voice>1</voice>
    <staff>1</staff>
   </direction>
   <note color="#000000" default-x="149">
    <pitch>
     <step>G</step>
     <alter>1</alter>
     <octave>4</octave>
    </pitch>
    <duration>128</duration>
    <instrument id="P1-I1" />
    <voice>1</voice>
    <type>eighth</type>
    <stem>up</stem>
    <staff>1</staff>
    <beam number="1">continue</beam>
    <lyric default-y="-80" number="1" color="#000000">
     <syllabic>begin</syllabic>
     <text>Su</text>
    </lyric>
   </note>
   <note color="#000000" default-x="215">
    <pitch>
     <step>A</step>
     <octave>4</octave>
    </pitch>
    <duration>128</duration>
    <instrument id="P1-I1" />
    <voice>1</voice>
    <type>eighth</type>
    <stem>up</stem>
    <staff>1</staff>
    <beam number="1">end</beam>
    <lyric default-y="-80" number="1" color="#000000">
     <syllabic>end</syllabic>
     <text>a</text>
    </lyric>
   </note>
   <direction>
    <direction-type>
     <words default-x="1585" default-y="27" justify="center" valign="middle" font-family="Opus Chords Std" font-size="7.0755">E7</words>
    </direction-type>
    <voice>1</voice>
    <staff>1</staff>
   </direction>
   <note color="#000000" default-x="282">
    <pitch>
     <step>B</step>
     <octave>4</octave>
    </pitch>
    <duration>512</duration>
    <instrument id="P1-I1" />
    <voice>1</voice>
    <type>half</type>
    <stem>up</stem>
    <staff>1</staff>
    <lyric default-y="-80" number="1" color="#000000">
     <syllabic>single</syllabic>
     <text>mão,</text>
    </lyric>
   </note>
  </measure>
  <measure number="13" width="427">
   <print new-system="yes">
    <system-layout>
     <system-margins>
      <left-margin>22</left-margin>
      <right-margin>0</right-margin>
     </system-margins>
     <system-distance>117</system-distance>
    </system-layout>
   </print>
   <attributes>
    <staff-details number="1" print-object="yes" />
   </attributes>
   <direction>
    <direction-type>
     <words default-x="365" default-y="27" justify="center" valign="middle" font-family="Opus Chords Std" font-size="7.0755">A</words>
    </direction-type>
    <voice>1</voice>
    <staff>1</staff>
   </direction>
   <note color="#000000" default-x="110">
    <pitch>
     <step>C</step>
     <alter>1</alter>
     <octave>5</octave>
    </pitch>
    <duration>512</duration>
    <instrument id="P1-I1" />
    <voice>1</voice>
    <type>half</type>
    <stem>down</stem>
    <staff>1</staff>
    <lyric default-y="-80" number="1" color="#000000">
     <syllabic>begin</syllabic>
     <text>jun</text>
    </lyric>
   </note>
   <direction>
    <direction-type>
     <words default-x="524" default-y="27" justify="center" valign="middle" font-family="Opus Chords Std" font-size="7.0755">B7/A</words>
    </direction-type>
    <voice>1</voice>
    <staff>1</staff>
   </direction>
   <note color="#000000" default-x="268">
    <pitch>
     <step>A</step>
     <octave>4</octave>
    </pitch>
    <duration>512</duration>
    <instrument id="P1-I1" />
    <voice>1</voice>
    <type>half</type>
    <stem>up</stem>
    <staff>1</staff>
    <lyric default-y="-80" number="1" color="#000000">
     <syllabic>end</syllabic>
     <text>tos</text>
    </lyric>
   </note>
  </measure>
  <measure number="14" width="402">
   <direction>
    <direction-type>
     <words default-x="605" default-y="25" justify="center" valign="middle" font-family="Opus Chords Std" font-size="7.0755">E</words>
    </direction-type>
    <voice>1</voice>
    <staff>1</staff>
   </direction>
   <note color="#000000" default-x="15">
    <pitch>
     <step>B</step>
     <octave>4</octave>
    </pitch>
    <duration>128</duration>
    <instrument id="P1-I1" />
    <voice>1</voice>
    <type>eighth</type>
    <stem>down</stem>
    <staff>1</staff>
    <beam number="1">begin</beam>
    <lyric default-y="-80" number="1" color="#000000">
     <syllabic>begin</syllabic>
     <text>va</text>
    </lyric>
   </note>
   <note color="#000000" default-x="82">
    <pitch>
     <step>C</step>
     <alter>1</alter>
     <octave>5</octave>
    </pitch>
    <duration>128</duration>
    <instrument id="P1-I1" />
    <voice>1</voice>
    <type>eighth</type>
    <stem>down</stem>
    <staff>1</staff>
    <beam number="1">end</beam>
    <lyric default-y="-80" number="1" color="#000000">
     <syllabic>end</syllabic>
     <text>mos</text>
    </lyric>
   </note>
   <direction>
    <direction-type>
     <words default-x="721" default-y="27" justify="center" valign="middle" font-family="Opus Chords Std" font-size="7.0755">G#m</words>
    </direction-type>
    <voice>1</voice>
    <staff>1</staff>
   </direction>
   <note color="#000000" default-x="150">
    <pitch>
     <step>B</step>
     <octave>4</octave>
    </pitch>
    <duration>256</duration>
    <instrument id="P1-I1" />
    <voice>1</voice>
    <type>quarter</type>
    <stem>up</stem>
    <staff>1</staff>
    <lyric default-y="-80" number="1" color="#000000">
     <syllabic>begin</syllabic>
     <text>as</text>
    </lyric>
   </note>
   <direction>
    <direction-type>
     <words default-x="833" default-y="27" justify="center" valign="middle" font-family="Opus Chords Std" font-size="7.0755">C#m7</words>
    </direction-type>
    <voice>1</voice>
    <staff>1</staff>
   </direction>
   <note color="#000000" default-x="243">
    <pitch>
     <step>G</step>
     <alter>1</alter>
     <octave>4</octave>
    </pitch>
    <duration>512</duration>
    <instrument id="P1-I1" />
    <voice>1</voice>
    <type>half</type>
    <stem>up</stem>
    <staff>1</staff>
    <lyric default-y="-80" number="1" color="#000000">
     <syllabic>end</syllabic>
     <text>sim,</text>
    </lyric>
   </note>
  </measure>
  <measure number="15" width="391">
   <direction>
    <direction-type>
     <words default-x="1009" default-y="27" justify="center" valign="middle" font-family="Opus Chords Std" font-size="7.0755">F#7</words>
    </direction-type>
    <voice>1</voice>
    <staff>1</staff>
   </direction>
   <note color="#000000" default-x="17">
    <pitch>
     <step>F</step>
     <alter>1</alter>
     <octave>4</octave>
    </pitch>
    <duration>256</duration>
    <instrument id="P1-I1" />
    <voice>1</voice>
    <type>quarter</type>
    <stem>up</stem>
    <staff>1</staff>
    <lyric default-y="-80" number="1" color="#000000">
     <syllabic>single</syllabic>
     <text>Seu</text>
    </lyric>
   </note>
   <note color="#000000" default-x="111">
    <pitch>
     <step>E</step>
     <octave>4</octave>
    </pitch>
    <duration>256</duration>
    <instrument id="P1-I1" />
    <voice>1</voice>
    <type>quarter</type>
    <stem>up</stem>
    <staff>1</staff>
    <lyric default-y="-80" number="1" color="#000000">
     <syllabic>begin</syllabic>
     <text>a</text>
    </lyric>
   </note>
   <note color="#000000" default-x="204">
    <pitch>
     <step>D</step>
     <alter>1</alter>
     <octave>4</octave>
    </pitch>
    <duration>256</duration>
    <instrument id="P1-I1" />
    <voice>1</voice>
    <type>quarter</type>
    <stem>up</stem>
    <staff>1</staff>
    <lyric default-y="-80" number="1" color="#000000">
     <syllabic>end</syllabic>
     <text>mor</text>
    </lyric>
   </note>
   <note color="#000000" default-x="298">
    <pitch>
     <step>C</step>
     <alter>1</alter>
     <octave>4</octave>
    </pitch>
    <duration>256</duration>
    <instrument id="P1-I1" />
    <voice>1</voice>
    <type>quarter</type>
    <stem>up</stem>
    <staff>1</staff>
    <lyric default-y="-80" number="1" color="#000000">
     <syllabic>begin</syllabic>
     <text>can</text>
    </lyric>
   </note>
  </measure>
  <measure number="16" width="356">
   <direction>
    <direction-type>
     <words default-x="1400" default-y="27" justify="center" valign="middle" font-family="Opus Chords Std" font-size="7.0755">B</words>
    </direction-type>
    <voice>1</voice>
    <staff>1</staff>
   </direction>
   <note color="#000000" default-x="16">
    <pitch>
     <step>B</step>
     <octave>3</octave>
    </pitch>
    <duration>512</duration>
    <instrument id="P1-I1" />
    <voice>1</voice>
    <type>half</type>
    <stem>up</stem>
    <staff>1</staff>
    <lyric default-y="-80" number="1" color="#000000">
     <syllabic>middle</syllabic>
     <text>tan</text>
    </lyric>
   </note>
   <direction>
    <direction-type>
     <words default-x="1554" default-y="27" justify="center" valign="middle" font-family="Opus Chords Std" font-size="7.0755">B7/D#</words>
    </direction-type>
    <voice>1</voice>
    <staff>1</staff>
   </direction>
   <note color="#000000" default-x="175">
    <pitch>
     <step>B</step>
     <octave>4</octave>
    </pitch>
    <duration>512</duration>
    <instrument id="P1-I1" />
    <voice>1</voice>
    <type>half</type>
    <stem>down</stem>
    <staff>1</staff>
    <lyric default-y="-80" number="1" color="#000000">
     <syllabic>end</syllabic>
     <text>do</text>
    </lyric>
   </note>
   <barline location="right">
    <repeat direction="backward" />
   </barline>
  </measure>
 </part>
</score-partwise>
