<?xml version="1.0" encoding='UTF-8' standalone='no' ?>
<!DOCTYPE score-partwise PUBLIC "-//Recordare//DTD MusicXML 2.0 Partwise//EN" "http://www.musicxml.org/dtds/partwise.dtd">
<score-partwise version="2.0">
 <work>
  <work-title />
 </work>
 <identification>
  <rights>Copyright © </rights>
  <encoding>
   <encoding-date>2016-03-04</encoding-date>
   <encoder>Miguel Nunes</encoder>
   <software>Sibelius 7.0.0</software>
   <software>Direct export, not from Dolet</software>
   <encoding-description>Sibelius / MusicXML 2.0</encoding-description>
   <supports element="print" type="yes" value="yes" attribute="new-system" />
   <supports element="print" type="yes" value="yes" attribute="new-page" />
   <supports element="accidental" type="yes" />
   <supports element="beam" type="yes" />
   <supports element="stem" type="yes" />
  </encoding>
 </identification>
 <defaults>
  <scaling>
   <millimeters>210</millimeters>
   <tenths>1866</tenths>
  </scaling>
  <page-layout>
   <page-height>1324</page-height>
   <page-width>1866</page-width>
   <page-margins type="both">
    <left-margin>133</left-margin>
    <right-margin>133</right-margin>
    <top-margin>88</top-margin>
    <bottom-margin>44</bottom-margin>
   </page-margins>
  </page-layout>
  <system-layout>
   <system-margins>
    <left-margin>21</left-margin>
    <right-margin>0</right-margin>
   </system-margins>
   <system-distance>92</system-distance>
  </system-layout>
  <appearance>
   <line-width type="stem">0.9375</line-width>
   <line-width type="beam">5</line-width>
   <line-width type="staff">0.9375</line-width>
   <line-width type="light barline">1.5625</line-width>
   <line-width type="heavy barline">5</line-width>
   <line-width type="leger">1.5625</line-width>
   <line-width type="ending">1.5625</line-width>
   <line-width type="wedge">1.25</line-width>
   <line-width type="enclosure">0.9375</line-width>
   <line-width type="tuplet bracket">1.25</line-width>
   <line-width type="bracket">5</line-width>
   <line-width type="dashes">1.5625</line-width>
   <line-width type="extend">0.9375</line-width>
   <line-width type="octave shift">1.5625</line-width>
   <line-width type="pedal">1.5625</line-width>
   <line-width type="slur middle">1.5625</line-width>
   <line-width type="slur tip">0.625</line-width>
   <line-width type="tie middle">1.5625</line-width>
   <line-width type="tie tip">0.625</line-width>
   <note-size type="cue">75</note-size>
   <note-size type="grace">60</note-size>
  </appearance>
  <music-font font-family="Helsinki Std" font-size="12.7559" />
  <lyric-font font-family="Georgia" font-size="6.7766" />
  <lyric-language xml:lang="en" />
 </defaults>
 <part-list>
  <part-group type="start" number="1">
   <group-symbol>brace</group-symbol>
  </part-group>
  <score-part id="P1">
   <part-name>P1</part-name>
   <score-instrument id="P1-I1">
    <instrument-name>Piano (2)</instrument-name>
   </score-instrument>
  </score-part>
  <part-group type="stop" number="1" />
 </part-list>
 <part id="P1">
  <measure number="1" width="232">
   <print new-page="yes">
    <system-layout>
     <system-margins>
      <left-margin>22</left-margin>
      <right-margin>0</right-margin>
     </system-margins>
     <top-system-distance>77</top-system-distance>
    </system-layout>
   </print>
   <attributes>
    <divisions>256</divisions>
    <key color="#000000">
     <fifths>4</fifths>
     <mode>major</mode>
    </key>
    <time color="#000000">
     <beats>2</beats>
     <beat-type>4</beat-type>
    </time>
    <staves>1</staves>
    <clef number="1" color="#000000">
     <sign>G</sign>
     <line>2</line>
    </clef>
    <staff-details number="1" print-object="yes" />
   </attributes>
   <forward>
    <duration>512</duration>
   </forward>
   <direction>
    <direction-type>
     <words default-x="367" default-y="25" justify="center" valign="middle" font-family="Opus Chords Std" font-size="7.0755">E</words>
    </direction-type>
    <offset sound="no">-512</offset>
    <voice>1</voice>
    <staff>1</staff>
   </direction>
   <direction>
    <direction-type>
     <metronome color="#000000" font-family="Georgia" font-size="7.6735">
      <beat-unit>quarter</beat-unit>
      <per-minute>80</per-minute>
     </metronome>
    </direction-type>
    <offset sound="no">-512</offset>
    <voice>1</voice>
    <staff>1</staff>
   </direction>
   <note default-x="113">
    <rest />
    <duration>256</duration>
    <instrument id="P1-I1" />
    <voice>1</voice>
    <type>quarter</type>
    <staff>1</staff>
   </note>
   <note default-x="158">
    <rest />
    <duration>192</duration>
    <instrument id="P1-I1" />
    <voice>1</voice>
    <type>eighth</type>
    <dot />
    <staff>1</staff>
   </note>
   <note color="#000000" default-x="197">
    <pitch>
     <step>B</step>
     <octave>3</octave>
    </pitch>
    <duration>64</duration>
    <instrument id="P1-I1" />
    <voice>1</voice>
    <type>16th</type>
    <stem>up</stem>
    <staff>1</staff>
    <beam number="1">begin</beam>
    <lyric default-y="-80" number="1" color="#000000">
     <syllabic>begin</syllabic>
     <text>U</text>
    </lyric>
   </note>
  </measure>
  <measure number="2" width="163">
   <note color="#000000" default-x="15">
    <pitch>
     <step>B</step>
     <octave>3</octave>
    </pitch>
    <duration>128</duration>
    <instrument id="P1-I1" />
    <voice>1</voice>
    <type>eighth</type>
    <stem>up</stem>
    <staff>1</staff>
    <beam number="1">begin</beam>
    <lyric default-y="-80" number="1" color="#000000">
     <syllabic>middle</syllabic>
     <text>ni</text>
    </lyric>
   </note>
   <note color="#000000" default-x="47">
    <pitch>
     <step>E</step>
     <octave>4</octave>
    </pitch>
    <duration>128</duration>
    <instrument id="P1-I1" />
    <voice>1</voice>
    <type>eighth</type>
    <stem>up</stem>
    <staff>1</staff>
    <beam number="1">end</beam>
    <lyric default-y="-80" number="1" color="#000000">
     <syllabic>end</syllabic>
     <text>dos</text>
    </lyric>
   </note>
   <note color="#000000" default-x="90">
    <pitch>
     <step>E</step>
     <octave>4</octave>
    </pitch>
    <duration>128</duration>
    <instrument id="P1-I1" />
    <voice>1</voice>
    <type>eighth</type>
    <stem>up</stem>
    <staff>1</staff>
    <beam number="1">begin</beam>
    <lyric default-y="-80" number="1" color="#000000">
     <syllabic>single</syllabic>
     <text>em</text>
    </lyric>
   </note>
   <note color="#000000" default-x="130">
    <pitch>
     <step>F</step>
     <alter>1</alter>
     <octave>4</octave>
    </pitch>
    <duration>128</duration>
    <instrument id="P1-I1" />
    <voice>1</voice>
    <type>eighth</type>
    <stem>up</stem>
    <staff>1</staff>
    <beam number="1">end</beam>
    <lyric default-y="-80" number="1" color="#000000">
     <syllabic>begin</syllabic>
     <text>es</text>
    </lyric>
   </note>
  </measure>
  <measure number="3" width="162">
   <note color="#000000" default-x="15">
    <pitch>
     <step>F</step>
     <alter>1</alter>
     <octave>4</octave>
    </pitch>
    <duration>128</duration>
    <instrument id="P1-I1" />
    <voice>1</voice>
    <type>eighth</type>
    <stem>up</stem>
    <staff>1</staff>
    <beam number="1">begin</beam>
    <lyric default-y="-80" number="1" color="#000000">
     <syllabic>middle</syllabic>
     <text>pí</text>
    </lyric>
   </note>
   <note color="#000000" default-x="47">
    <pitch>
     <step>G</step>
     <alter>1</alter>
     <octave>4</octave>
    </pitch>
    <duration>64</duration>
    <instrument id="P1-I1" />
    <voice>1</voice>
    <type>16th</type>
    <stem>up</stem>
    <staff>1</staff>
    <beam number="1">continue</beam>
    <lyric default-y="-80" number="1" color="#000000">
     <syllabic>middle</syllabic>
     <text>ri</text>
    </lyric>
   </note>
   <note color="#000000" default-x="72">
    <pitch>
     <step>G</step>
     <alter>1</alter>
     <octave>4</octave>
    </pitch>
    <duration>64</duration>
    <tie type="start" />
    <instrument id="P1-I1" />
    <voice>1</voice>
    <type>16th</type>
    <stem>up</stem>
    <staff>1</staff>
    <beam number="1">end</beam>
    <notations>
     <tied type="start" />
    </notations>
    <lyric default-y="-80" number="1" color="#000000">
     <syllabic>end</syllabic>
     <text>to</text>
     <extend />
    </lyric>
   </note>
   <note color="#000000" default-x="98">
    <pitch>
     <step>G</step>
     <alter>1</alter>
     <octave>4</octave>
    </pitch>
    <duration>192</duration>
    <tie type="stop" />
    <instrument id="P1-I1" />
    <voice>1</voice>
    <type>eighth</type>
    <dot />
    <stem>up</stem>
    <staff>1</staff>
    <beam number="1">begin</beam>
    <notations>
     <tied type="stop" />
    </notations>
   </note>
   <note color="#000000" default-x="136">
    <pitch>
     <step>B</step>
     <octave>3</octave>
    </pitch>
    <duration>64</duration>
    <instrument id="P1-I1" />
    <voice>1</voice>
    <type>16th</type>
    <stem>up</stem>
    <staff>1</staff>
    <beam number="1">end</beam>
    <lyric default-y="-80" number="1" color="#000000">
     <syllabic>begin</syllabic>
     <text>u</text>
    </lyric>
   </note>
  </measure>
  <measure number="4" width="153">
   <direction>
    <direction-type>
     <words default-x="735" default-y="25" justify="center" valign="middle" font-family="Opus Chords Std" font-size="7.0755">A/mi</words>
    </direction-type>
    <voice>1</voice>
    <staff>1</staff>
   </direction>
   <note color="#000000" default-x="15">
    <pitch>
     <step>C</step>
     <alter>1</alter>
     <octave>4</octave>
    </pitch>
    <duration>128</duration>
    <instrument id="P1-I1" />
    <voice>1</voice>
    <type>eighth</type>
    <stem>up</stem>
    <staff>1</staff>
    <beam number="1">begin</beam>
    <lyric default-y="-80" number="1" color="#000000">
     <syllabic>middle</syllabic>
     <text>ni</text>
    </lyric>
   </note>
   <note color="#000000" default-x="47">
    <pitch>
     <step>E</step>
     <octave>4</octave>
    </pitch>
    <duration>128</duration>
    <instrument id="P1-I1" />
    <voice>1</voice>
    <type>eighth</type>
    <stem>up</stem>
    <staff>1</staff>
    <beam number="1">end</beam>
    <lyric default-y="-80" number="1" color="#000000">
     <syllabic>end</syllabic>
     <text>dos</text>
    </lyric>
   </note>
   <note color="#000000" default-x="88">
    <pitch>
     <step>E</step>
     <octave>4</octave>
    </pitch>
    <duration>128</duration>
    <instrument id="P1-I1" />
    <voice>1</voice>
    <type>eighth</type>
    <stem>up</stem>
    <staff>1</staff>
    <beam number="1">begin</beam>
    <lyric default-y="-80" number="1" color="#000000">
     <syllabic>single</syllabic>
     <text>na</text>
    </lyric>
   </note>
   <note color="#000000" default-x="120">
    <pitch>
     <step>A</step>
     <octave>4</octave>
    </pitch>
    <duration>128</duration>
    <instrument id="P1-I1" />
    <voice>1</voice>
    <type>eighth</type>
    <stem>up</stem>
    <staff>1</staff>
    <beam number="1">end</beam>
    <lyric default-y="-80" number="1" color="#000000">
     <syllabic>begin</syllabic>
     <text>ver</text>
    </lyric>
   </note>
  </measure>
  <measure number="5" width="134">
   <direction>
    <direction-type>
     <words default-x="889" default-y="25" justify="center" valign="middle" font-family="Opus Chords Std" font-size="7.0755">E</words>
    </direction-type>
    <voice>1</voice>
    <staff>1</staff>
   </direction>
   <note color="#000000" default-x="15">
    <pitch>
     <step>G</step>
     <alter>1</alter>
     <octave>4</octave>
    </pitch>
    <duration>256</duration>
    <instrument id="P1-I1" />
    <voice>1</voice>
    <type>quarter</type>
    <stem>up</stem>
    <staff>1</staff>
    <lyric default-y="-80" number="1" color="#000000">
     <syllabic>middle</syllabic>
     <text>da</text>
    </lyric>
   </note>
   <note color="#000000" default-x="60">
    <pitch>
     <step>G</step>
     <alter>1</alter>
     <octave>4</octave>
    </pitch>
    <duration>128</duration>
    <instrument id="P1-I1" />
    <voice>1</voice>
    <type>eighth</type>
    <stem>up</stem>
    <staff>1</staff>
    <beam number="1">begin</beam>
    <lyric default-y="-80" number="1" color="#000000">
     <syllabic>end</syllabic>
     <text>de</text>
    </lyric>
   </note>
   <note color="#000000" default-x="101">
    <pitch>
     <step>E</step>
     <octave>4</octave>
    </pitch>
    <duration>128</duration>
    <instrument id="P1-I1" />
    <voice>1</voice>
    <type>eighth</type>
    <stem>up</stem>
    <staff>1</staff>
    <beam number="1">end</beam>
    <lyric default-y="-80" number="1" color="#000000">
     <syllabic>single</syllabic>
     <text>nós</text>
    </lyric>
   </note>
  </measure>
  <measure number="6" width="150">
   <direction>
    <direction-type>
     <words default-x="1024" default-y="25" justify="center" valign="middle" font-family="Opus Chords Std" font-size="7.0755">A</words>
    </direction-type>
    <voice>1</voice>
    <staff>1</staff>
   </direction>
   <note color="#000000" default-x="15">
    <pitch>
     <step>C</step>
     <alter>1</alter>
     <octave>5</octave>
    </pitch>
    <duration>128</duration>
    <instrument id="P1-I1" />
    <voice>1</voice>
    <type>eighth</type>
    <stem>down</stem>
    <staff>1</staff>
    <beam number="1">begin</beam>
    <lyric default-y="-80" number="1" color="#000000">
     <syllabic>begin</syllabic>
     <text>vi</text>
    </lyric>
   </note>
   <note color="#000000" default-x="51">
    <pitch>
     <step>B</step>
     <octave>4</octave>
    </pitch>
    <duration>128</duration>
    <instrument id="P1-I1" />
    <voice>1</voice>
    <type>eighth</type>
    <stem>down</stem>
    <staff>1</staff>
    <beam number="1">end</beam>
    <lyric default-y="-80" number="1" color="#000000">
     <syllabic>end</syllabic>
     <text>mos</text>
    </lyric>
   </note>
   <note color="#000000" default-x="84">
    <pitch>
     <step>A</step>
     <octave>4</octave>
    </pitch>
    <duration>128</duration>
    <instrument id="P1-I1" />
    <voice>1</voice>
    <type>eighth</type>
    <stem>up</stem>
    <staff>1</staff>
    <beam number="1">begin</beam>
    <lyric default-y="-80" number="1" color="#000000">
     <syllabic>begin</syllabic>
     <text>a</text>
    </lyric>
   </note>
   <note color="#000000" default-x="117">
    <pitch>
     <step>G</step>
     <alter>1</alter>
     <octave>4</octave>
    </pitch>
    <duration>128</duration>
    <instrument id="P1-I1" />
    <voice>1</voice>
    <type>eighth</type>
    <stem>up</stem>
    <staff>1</staff>
    <beam number="1">end</beam>
    <lyric default-y="-80" number="1" color="#000000">
     <syllabic>end</syllabic>
     <text>té</text>
    </lyric>
   </note>
  </measure>
  <measure number="7" width="209">
   <direction>
    <direction-type>
     <words default-x="1174" default-y="25" justify="center" valign="middle" font-family="Opus Chords Std" font-size="7.0755">E/sol#</words>
    </direction-type>
    <voice>1</voice>
    <staff>1</staff>
   </direction>
   <note color="#000000" default-x="15">
    <pitch>
     <step>F</step>
     <alter>1</alter>
     <octave>4</octave>
    </pitch>
    <duration>128</duration>
    <instrument id="P1-I1" />
    <voice>1</voice>
    <type>eighth</type>
    <stem>up</stem>
    <staff>1</staff>
    <beam number="1">begin</beam>
    <lyric default-y="-80" number="1" color="#000000">
     <syllabic>single</syllabic>
     <text>Ti</text>
    </lyric>
   </note>
   <note color="#000000" default-x="47">
    <pitch>
     <step>G</step>
     <alter>1</alter>
     <octave>4</octave>
    </pitch>
    <duration>64</duration>
    <instrument id="P1-I1" />
    <voice>1</voice>
    <type>16th</type>
    <stem>up</stem>
    <staff>1</staff>
    <beam number="1">continue</beam>
    <lyric default-y="-80" number="1" color="#000000">
     <syllabic>begin</syllabic>
     <text>Se</text>
    </lyric>
   </note>
   <note color="#000000" default-x="90">
    <pitch>
     <step>E</step>
     <octave>4</octave>
    </pitch>
    <duration>64</duration>
    <tie type="start" />
    <instrument id="P1-I1" />
    <voice>1</voice>
    <type>16th</type>
    <stem>up</stem>
    <staff>1</staff>
    <beam number="1">end</beam>
    <notations>
     <tied type="start" />
    </notations>
    <lyric default-y="-80" number="1" color="#000000">
     <syllabic>end</syllabic>
     <text>nhor</text>
     <extend />
    </lyric>
   </note>
   <direction>
    <direction-type>
     <words default-x="1277" default-y="25" justify="center" valign="middle" font-family="Opus Chords Std" font-size="7.0755">C#m</words>
    </direction-type>
    <voice>1</voice>
    <staff>1</staff>
   </direction>
   <note color="#000000" default-x="118">
    <pitch>
     <step>E</step>
     <octave>4</octave>
    </pitch>
    <duration>192</duration>
    <tie type="stop" />
    <instrument id="P1-I1" />
    <voice>1</voice>
    <type>eighth</type>
    <dot />
    <stem>up</stem>
    <staff>1</staff>
    <beam number="1">begin</beam>
    <notations>
     <tied type="stop" />
    </notations>
   </note>
   <note color="#000000" default-x="173">
    <pitch>
     <step>B</step>
     <octave>3</octave>
    </pitch>
    <duration>64</duration>
    <instrument id="P1-I1" />
    <voice>1</voice>
    <type>16th</type>
    <stem>up</stem>
    <staff>1</staff>
    <beam number="1">end</beam>
    <lyric default-y="-80" number="1" color="#000000">
     <syllabic>begin</syllabic>
     <text>Con</text>
    </lyric>
   </note>
  </measure>
  <measure number="8" width="207">
   <direction>
    <direction-type>
     <words default-x="1384" default-y="25" justify="center" valign="middle" font-family="Opus Chords Std" font-size="7.0755">A</words>
    </direction-type>
    <voice>1</voice>
    <staff>1</staff>
   </direction>
   <note color="#000000" default-x="15">
    <pitch>
     <step>C</step>
     <alter>1</alter>
     <octave>4</octave>
    </pitch>
    <duration>128</duration>
    <instrument id="P1-I1" />
    <voice>1</voice>
    <type>eighth</type>
    <stem>up</stem>
    <staff>1</staff>
    <beam number="1">begin</beam>
    <lyric default-y="-80" number="1" color="#000000">
     <syllabic>middle</syllabic>
     <text>fian</text>
    </lyric>
   </note>
   <note color="#000000" default-x="69">
    <pitch>
     <step>E</step>
     <octave>4</octave>
    </pitch>
    <duration>128</duration>
    <instrument id="P1-I1" />
    <voice>1</voice>
    <type>eighth</type>
    <stem>up</stem>
    <staff>1</staff>
    <beam number="1">end</beam>
    <lyric default-y="-80" number="1" color="#000000">
     <syllabic>end</syllabic>
     <text>do_em</text>
    </lyric>
   </note>
   <note color="#000000" default-x="127">
    <pitch>
     <step>E</step>
     <octave>4</octave>
    </pitch>
    <duration>128</duration>
    <instrument id="P1-I1" />
    <voice>1</voice>
    <type>eighth</type>
    <stem>up</stem>
    <staff>1</staff>
    <beam number="1">begin</beam>
    <lyric default-y="-80" number="1" color="#000000">
     <syllabic>single</syllabic>
     <text>Tua</text>
    </lyric>
   </note>
   <note color="#000000" default-x="175">
    <pitch>
     <step>F</step>
     <alter>1</alter>
     <octave>4</octave>
    </pitch>
    <duration>128</duration>
    <instrument id="P1-I1" />
    <voice>1</voice>
    <type>eighth</type>
    <stem>up</stem>
    <staff>1</staff>
    <beam number="1">end</beam>
    <lyric default-y="-80" number="1" color="#000000">
     <syllabic>begin</syllabic>
     <text>von</text>
    </lyric>
   </note>
  </measure>
  <measure number="9" width="163">
   <direction>
    <direction-type>
     <words default-x="1591" default-y="25" justify="center" valign="middle" font-family="Opus Chords Std" font-size="7.0755">F#m</words>
    </direction-type>
    <voice>1</voice>
    <staff>1</staff>
   </direction>
   <note color="#000000" default-x="15">
    <pitch>
     <step>F</step>
     <alter>1</alter>
     <octave>4</octave>
    </pitch>
    <duration>256</duration>
    <instrument id="P1-I1" />
    <voice>1</voice>
    <type>quarter</type>
    <stem>up</stem>
    <staff>1</staff>
    <lyric default-y="-80" number="1" color="#000000">
     <syllabic>middle</syllabic>
     <text>ta</text>
    </lyric>
   </note>
   <direction>
    <direction-type>
     <words default-x="1637" default-y="25" justify="center" valign="middle" font-family="Opus Chords Std" font-size="7.0755">B</words>
    </direction-type>
    <voice>1</voice>
    <staff>1</staff>
   </direction>
   <note color="#000000" default-x="60">
    <pitch>
     <step>F</step>
     <alter>1</alter>
     <octave>4</octave>
    </pitch>
    <duration>128</duration>
    <instrument id="P1-I1" />
    <voice>1</voice>
    <type>eighth</type>
    <stem>up</stem>
    <staff>1</staff>
    <beam number="1">begin</beam>
    <lyric default-y="-80" number="1" color="#000000">
     <syllabic>end</syllabic>
     <text>de</text>
    </lyric>
   </note>
   <note color="#000000" default-x="102">
    <pitch>
     <step>E</step>
     <octave>4</octave>
    </pitch>
    <duration>64</duration>
    <instrument id="P1-I1" />
    <voice>1</voice>
    <type>16th</type>
    <stem>up</stem>
    <staff>1</staff>
    <beam number="1">continue</beam>
    <lyric default-y="-80" number="1" color="#000000">
     <syllabic>begin</syllabic>
     <text>dá</text>
    </lyric>
   </note>
   <note color="#000000" default-x="138">
    <pitch>
     <step>D</step>
     <alter>1</alter>
     <octave>4</octave>
    </pitch>
    <duration>64</duration>
    <instrument id="P1-I1" />
    <voice>1</voice>
    <type>16th</type>
    <stem>up</stem>
    <staff>1</staff>
    <beam number="1">end</beam>
    <lyric default-y="-80" number="1" color="#000000">
     <syllabic>end</syllabic>
     <text>nos</text>
    </lyric>
   </note>
  </measure>
  <measure number="10" width="195">
   <print new-system="yes">
    <system-layout>
     <system-margins>
      <left-margin>22</left-margin>
      <right-margin>0</right-margin>
     </system-margins>
     <system-distance>144</system-distance>
    </system-layout>
   </print>
   <attributes>
    <staff-details number="1" print-object="yes" />
   </attributes>
   <direction>
    <direction-type>
     <words default-x="362" default-y="25" justify="center" valign="middle" font-family="Opus Chords Std" font-size="7.0755">A</words>
    </direction-type>
    <voice>1</voice>
    <staff>1</staff>
   </direction>
   <note color="#000000" default-x="107">
    <pitch>
     <step>E</step>
     <octave>4</octave>
    </pitch>
    <duration>384</duration>
    <instrument id="P1-I1" />
    <voice>1</voice>
    <type>quarter</type>
    <dot />
    <stem>up</stem>
    <staff>1</staff>
    <lyric default-y="-80" number="1" color="#000000">
     <syllabic>begin</syllabic>
     <text>ho</text>
    </lyric>
   </note>
   <note color="#000000" default-x="165">
    <pitch>
     <step>B</step>
     <octave>4</octave>
    </pitch>
    <duration>128</duration>
    <instrument id="P1-I1" />
    <voice>1</voice>
    <type>eighth</type>
    <stem>down</stem>
    <staff>1</staff>
    <beam number="1">begin</beam>
    <lyric default-y="-80" number="1" color="#000000">
     <syllabic>end</syllabic>
     <text>je_a</text>
    </lyric>
   </note>
  </measure>
  <measure number="11" width="87">
   <direction>
    <direction-type>
     <words default-x="373" default-y="25" justify="center" valign="middle" font-family="Opus Chords Std" font-size="7.0755">E/sol#</words>
    </direction-type>
    <voice>1</voice>
    <staff>1</staff>
   </direction>
   <note color="#000000" default-x="15">
    <pitch>
     <step>B</step>
     <octave>4</octave>
    </pitch>
    <duration>512</duration>
    <instrument id="P1-I1" />
    <voice>1</voice>
    <type>half</type>
    <stem>down</stem>
    <staff>1</staff>
    <lyric default-y="-80" number="1" color="#000000">
     <syllabic>single</syllabic>
     <text>paz</text>
    </lyric>
   </note>
  </measure>
  <measure number="12" width="138">
   <direction>
    <direction-type>
     <words default-x="460" default-y="25" justify="center" valign="middle" font-family="Opus Chords Std" font-size="7.0755">A</words>
    </direction-type>
    <voice>1</voice>
    <staff>1</staff>
   </direction>
   <note color="#000000" default-x="15">
    <pitch>
     <step>E</step>
     <octave>4</octave>
    </pitch>
    <duration>128</duration>
    <instrument id="P1-I1" />
    <voice>1</voice>
    <type>eighth</type>
    <stem>up</stem>
    <staff>1</staff>
    <beam number="1">begin</beam>
    <lyric default-y="-80" number="1" color="#000000">
     <syllabic>single</syllabic>
     <text>e</text>
     <extend />
    </lyric>
   </note>
   <note color="#000000" default-x="45">
    <pitch>
     <step>C</step>
     <alter>1</alter>
     <octave>4</octave>
    </pitch>
    <duration>128</duration>
    <instrument id="P1-I1" />
    <voice>1</voice>
    <type>eighth</type>
    <stem>up</stem>
    <staff>1</staff>
    <beam number="1">end</beam>
   </note>
   <note color="#000000" default-x="76">
    <pitch>
     <step>E</step>
     <octave>4</octave>
    </pitch>
    <duration>128</duration>
    <instrument id="P1-I1" />
    <voice>1</voice>
    <type>eighth</type>
    <stem>up</stem>
    <staff>1</staff>
    <beam number="1">begin</beam>
    <lyric default-y="-80" number="1" color="#000000">
     <syllabic>single</syllabic>
     <text>Teu</text>
    </lyric>
   </note>
   <note color="#000000" default-x="107">
    <pitch>
     <step>C</step>
     <alter>1</alter>
     <octave>5</octave>
    </pitch>
    <duration>128</duration>
    <instrument id="P1-I1" />
    <voice>1</voice>
    <type>eighth</type>
    <stem>up</stem>
    <staff>1</staff>
    <beam number="1">end</beam>
    <lyric default-y="-80" number="1" color="#000000">
     <syllabic>begin</syllabic>
     <text>a</text>
    </lyric>
   </note>
  </measure>
  <measure number="13" width="87">
   <direction>
    <direction-type>
     <words default-x="598" default-y="25" justify="center" valign="middle" font-family="Opus Chords Std" font-size="7.0755">E/sol#</words>
    </direction-type>
    <voice>1</voice>
    <staff>1</staff>
   </direction>
   <note color="#000000" default-x="15">
    <pitch>
     <step>B</step>
     <octave>4</octave>
    </pitch>
    <duration>512</duration>
    <instrument id="P1-I1" />
    <voice>1</voice>
    <type>half</type>
    <stem>down</stem>
    <staff>1</staff>
    <lyric default-y="-80" number="1" color="#000000">
     <syllabic>end</syllabic>
     <text>mor</text>
    </lyric>
   </note>
  </measure>
  <measure number="14" width="175">
   <direction>
    <direction-type>
     <words default-x="685" default-y="25" justify="center" valign="middle" font-family="Opus Chords Std" font-size="7.0755">A</words>
    </direction-type>
    <voice>1</voice>
    <staff>1</staff>
   </direction>
   <note color="#000000" default-x="15">
    <pitch>
     <step>C</step>
     <alter>1</alter>
     <octave>5</octave>
    </pitch>
    <duration>128</duration>
    <instrument id="P1-I1" />
    <voice>1</voice>
    <type>eighth</type>
    <stem>down</stem>
    <staff>1</staff>
    <beam number="1">begin</beam>
    <lyric default-y="-80" number="1" color="#000000">
     <syllabic>begin</syllabic>
     <text>Gra</text>
    </lyric>
   </note>
   <note color="#000000" default-x="52">
    <pitch>
     <step>B</step>
     <octave>4</octave>
    </pitch>
    <duration>128</duration>
    <instrument id="P1-I1" />
    <voice>1</voice>
    <type>eighth</type>
    <stem>down</stem>
    <staff>1</staff>
    <beam number="1">end</beam>
    <lyric default-y="-80" number="1" color="#000000">
     <syllabic>end</syllabic>
     <text>va</text>
    </lyric>
   </note>
   <note color="#000000" default-x="112">
    <pitch>
     <step>A</step>
     <octave>4</octave>
    </pitch>
    <duration>128</duration>
    <instrument id="P1-I1" />
    <voice>1</voice>
    <type>eighth</type>
    <stem>up</stem>
    <staff>1</staff>
    <beam number="1">begin</beam>
    <lyric default-y="-80" number="1" color="#000000">
     <syllabic>single</syllabic>
     <text>Tua</text>
    </lyric>
   </note>
   <note color="#000000" default-x="145">
    <pitch>
     <step>G</step>
     <alter>1</alter>
     <octave>4</octave>
    </pitch>
    <duration>128</duration>
    <instrument id="P1-I1" />
    <voice>1</voice>
    <type>eighth</type>
    <stem>up</stem>
    <staff>1</staff>
    <beam number="1">end</beam>
    <lyric default-y="-80" number="1" color="#000000">
     <syllabic>begin</syllabic>
     <text>pa</text>
    </lyric>
   </note>
  </measure>
  <measure number="15" width="153">
   <direction>
    <direction-type>
     <words default-x="861" default-y="25" justify="center" valign="middle" font-family="Opus Chords Std" font-size="7.0755">E/sol#</words>
    </direction-type>
    <voice>1</voice>
    <staff>1</staff>
   </direction>
   <note color="#000000" default-x="15">
    <pitch>
     <step>F</step>
     <alter>1</alter>
     <octave>4</octave>
    </pitch>
    <duration>128</duration>
    <instrument id="P1-I1" />
    <voice>1</voice>
    <type>eighth</type>
    <stem>up</stem>
    <staff>1</staff>
    <beam number="1">begin</beam>
    <lyric default-y="-80" number="1" color="#000000">
     <syllabic>middle</syllabic>
     <text>la</text>
    </lyric>
   </note>
   <note color="#000000" default-x="45">
    <pitch>
     <step>G</step>
     <alter>1</alter>
     <octave>4</octave>
    </pitch>
    <duration>64</duration>
    <instrument id="P1-I1" />
    <voice>1</voice>
    <type>16th</type>
    <stem>up</stem>
    <staff>1</staff>
    <beam number="1">continue</beam>
   </note>
   <note color="#000000" default-x="69">
    <pitch>
     <step>E</step>
     <octave>4</octave>
    </pitch>
    <duration>64</duration>
    <tie type="start" />
    <instrument id="P1-I1" />
    <voice>1</voice>
    <type>16th</type>
    <stem>up</stem>
    <staff>1</staff>
    <beam number="1">end</beam>
    <notations>
     <tied type="start" />
    </notations>
    <lyric default-y="-80" number="1" color="#000000">
     <syllabic>end</syllabic>
     <text>vra</text>
     <extend />
    </lyric>
   </note>
   <direction>
    <direction-type>
     <words default-x="940" default-y="25" justify="center" valign="middle" font-family="Opus Chords Std" font-size="7.0755">C#m</words>
    </direction-type>
    <voice>1</voice>
    <staff>1</staff>
   </direction>
   <note color="#000000" default-x="93">
    <pitch>
     <step>E</step>
     <octave>4</octave>
    </pitch>
    <duration>192</duration>
    <tie type="stop" />
    <instrument id="P1-I1" />
    <voice>1</voice>
    <type>eighth</type>
    <dot />
    <stem>up</stem>
    <staff>1</staff>
    <beam number="1">begin</beam>
    <notations>
     <tied type="stop" />
    </notations>
   </note>
   <note color="#000000" default-x="129">
    <pitch>
     <step>B</step>
     <octave>3</octave>
    </pitch>
    <duration>64</duration>
    <instrument id="P1-I1" />
    <voice>1</voice>
    <type>16th</type>
    <stem>up</stem>
    <staff>1</staff>
    <beam number="1">end</beam>
    <lyric default-y="-80" number="1" color="#000000">
     <syllabic>single</syllabic>
     <text>em</text>
    </lyric>
   </note>
  </measure>
  <measure number="16" width="183">
   <direction>
    <direction-type>
     <words default-x="1015" default-y="25" justify="center" valign="middle" font-family="Opus Chords Std" font-size="7.0755">F#m</words>
    </direction-type>
    <voice>1</voice>
    <staff>1</staff>
   </direction>
   <note color="#000000" default-x="15">
    <pitch>
     <step>C</step>
     <alter>1</alter>
     <octave>4</octave>
    </pitch>
    <duration>128</duration>
    <instrument id="P1-I1" />
    <voice>1</voice>
    <type>eighth</type>
    <stem>up</stem>
    <staff>1</staff>
    <beam number="1">begin</beam>
    <lyric default-y="-80" number="1" color="#000000">
     <syllabic>begin</syllabic>
     <text>nos</text>
    </lyric>
   </note>
   <note color="#000000" default-x="58">
    <pitch>
     <step>E</step>
     <octave>4</octave>
    </pitch>
    <duration>128</duration>
    <instrument id="P1-I1" />
    <voice>1</voice>
    <type>eighth</type>
    <stem>up</stem>
    <staff>1</staff>
    <beam number="1">end</beam>
    <lyric default-y="-80" number="1" color="#000000">
     <syllabic>end</syllabic>
     <text>sos</text>
    </lyric>
   </note>
   <direction>
    <direction-type>
     <words default-x="1119" default-y="25" justify="center" valign="middle" font-family="Opus Chords Std" font-size="7.0755">A/si</words>
    </direction-type>
    <voice>1</voice>
    <staff>1</staff>
   </direction>
   <note color="#000000" default-x="119">
    <pitch>
     <step>E</step>
     <octave>4</octave>
    </pitch>
    <duration>128</duration>
    <instrument id="P1-I1" />
    <voice>1</voice>
    <type>eighth</type>
    <stem>up</stem>
    <staff>1</staff>
    <beam number="1">begin</beam>
    <lyric default-y="-80" number="1" color="#000000">
     <syllabic>begin</syllabic>
     <text>co</text>
    </lyric>
   </note>
   <note color="#000000" default-x="153">
    <pitch>
     <step>D</step>
     <alter>1</alter>
     <octave>4</octave>
    </pitch>
    <duration>128</duration>
    <instrument id="P1-I1" />
    <voice>1</voice>
    <type>eighth</type>
    <stem>up</stem>
    <staff>1</staff>
    <beam number="1">end</beam>
    <lyric default-y="-80" number="1" color="#000000">
     <syllabic>middle</syllabic>
     <text>ra</text>
    </lyric>
   </note>
  </measure>
  <measure number="17" width="120">
   <direction>
    <direction-type>
     <words default-x="1198" default-y="25" justify="center" valign="middle" font-family="Opus Chords Std" font-size="7.0755">E</words>
    </direction-type>
    <voice>1</voice>
    <staff>1</staff>
   </direction>
   <note color="#000000" default-x="15">
    <pitch>
     <step>E</step>
     <octave>4</octave>
    </pitch>
    <duration>512</duration>
    <instrument id="P1-I1" />
    <voice>1</voice>
    <type>half</type>
    <stem>up</stem>
    <staff>1</staff>
    <lyric default-y="-80" number="1" color="#000000">
     <syllabic>end</syllabic>
     <text>ções.</text>
    </lyric>
   </note>
   <barline>
    <bar-style>light-light</bar-style>
   </barline>
  </measure>
  <measure number="18" width="126">
   <attributes>
    <key color="#000000">
     <fifths>-1</fifths>
     <mode>major</mode>
    </key>
   </attributes>
   <direction>
    <direction-type>
     <words default-x="1319" default-y="25" justify="center" valign="middle" font-family="Opus Chords Std" font-size="7.0755">F</words>
    </direction-type>
    <voice>1</voice>
    <staff>1</staff>
   </direction>
   <note default-x="15">
    <rest />
    <duration>256</duration>
    <instrument id="P1-I1" />
    <voice>1</voice>
    <type>quarter</type>
    <staff>1</staff>
   </note>
   <note default-x="57">
    <rest />
    <duration>192</duration>
    <instrument id="P1-I1" />
    <voice>1</voice>
    <type>eighth</type>
    <dot />
    <staff>1</staff>
   </note>
   <note color="#000000" default-x="94">
    <pitch>
     <step>C</step>
     <octave>4</octave>
    </pitch>
    <duration>64</duration>
    <instrument id="P1-I1" />
    <voice>1</voice>
    <type>16th</type>
    <stem>up</stem>
    <staff>1</staff>
    <beam number="1">begin</beam>
    <lyric default-y="-80" number="1" color="#000000">
     <syllabic>begin</syllabic>
     <text>U</text>
    </lyric>
   </note>
  </measure>
  <measure number="19" width="155">
   <note color="#000000" default-x="15">
    <pitch>
     <step>C</step>
     <octave>4</octave>
    </pitch>
    <duration>128</duration>
    <instrument id="P1-I1" />
    <voice>1</voice>
    <type>eighth</type>
    <stem>up</stem>
    <staff>1</staff>
    <beam number="1">begin</beam>
    <lyric default-y="-80" number="1" color="#000000">
     <syllabic>middle</syllabic>
     <text>ni</text>
    </lyric>
   </note>
   <note color="#000000" default-x="48">
    <pitch>
     <step>F</step>
     <octave>4</octave>
    </pitch>
    <duration>128</duration>
    <instrument id="P1-I1" />
    <voice>1</voice>
    <type>eighth</type>
    <stem>up</stem>
    <staff>1</staff>
    <beam number="1">end</beam>
    <lyric default-y="-80" number="1" color="#000000">
     <syllabic>end</syllabic>
     <text>dos</text>
    </lyric>
   </note>
   <note color="#000000" default-x="94">
    <pitch>
     <step>F</step>
     <octave>4</octave>
    </pitch>
    <duration>128</duration>
    <instrument id="P1-I1" />
    <voice>1</voice>
    <type>eighth</type>
    <stem>up</stem>
    <staff>1</staff>
    <beam number="1">begin</beam>
    <lyric default-y="-80" number="1" color="#000000">
     <syllabic>single</syllabic>
     <text>em</text>
    </lyric>
   </note>
   <note color="#000000" default-x="125">
    <pitch>
     <step>G</step>
     <octave>4</octave>
    </pitch>
    <duration>128</duration>
    <instrument id="P1-I1" />
    <voice>1</voice>
    <type>eighth</type>
    <stem>up</stem>
    <staff>1</staff>
    <beam number="1">end</beam>
    <lyric default-y="-80" number="1" color="#000000">
     <syllabic>begin</syllabic>
     <text>es</text>
    </lyric>
   </note>
  </measure>
  <measure number="20" width="154">
   <note color="#000000" default-x="15">
    <pitch>
     <step>G</step>
     <octave>4</octave>
    </pitch>
    <duration>128</duration>
    <instrument id="P1-I1" />
    <voice>1</voice>
    <type>eighth</type>
    <stem>up</stem>
    <staff>1</staff>
    <beam number="1">begin</beam>
    <lyric default-y="-80" number="1" color="#000000">
     <syllabic>middle</syllabic>
     <text>pí</text>
    </lyric>
   </note>
   <note color="#000000" default-x="45">
    <pitch>
     <step>A</step>
     <octave>4</octave>
    </pitch>
    <duration>64</duration>
    <instrument id="P1-I1" />
    <voice>1</voice>
    <type>16th</type>
    <stem>up</stem>
    <staff>1</staff>
    <beam number="1">continue</beam>
    <lyric default-y="-80" number="1" color="#000000">
     <syllabic>middle</syllabic>
     <text>ri</text>
    </lyric>
   </note>
   <note color="#000000" default-x="70">
    <pitch>
     <step>A</step>
     <octave>4</octave>
    </pitch>
    <duration>64</duration>
    <tie type="start" />
    <instrument id="P1-I1" />
    <voice>1</voice>
    <type>16th</type>
    <stem>up</stem>
    <staff>1</staff>
    <beam number="1">end</beam>
    <notations>
     <tied type="start" />
    </notations>
    <lyric default-y="-80" number="1" color="#000000">
     <syllabic>end</syllabic>
     <text>to</text>
     <extend />
    </lyric>
   </note>
   <note color="#000000" default-x="94">
    <pitch>
     <step>A</step>
     <octave>4</octave>
    </pitch>
    <duration>192</duration>
    <tie type="stop" />
    <instrument id="P1-I1" />
    <voice>1</voice>
    <type>eighth</type>
    <dot />
    <stem>up</stem>
    <staff>1</staff>
    <beam number="1">begin</beam>
    <notations>
     <tied type="stop" />
    </notations>
   </note>
   <note color="#000000" default-x="130">
    <pitch>
     <step>C</step>
     <octave>4</octave>
    </pitch>
    <duration>64</duration>
    <instrument id="P1-I1" />
    <voice>1</voice>
    <type>16th</type>
    <stem>up</stem>
    <staff>1</staff>
    <beam number="1">end</beam>
    <lyric default-y="-80" number="1" color="#000000">
     <syllabic>begin</syllabic>
     <text>u</text>
    </lyric>
   </note>
  </measure>
  <measure number="21" width="281">
   <print new-system="yes">
    <system-layout>
     <system-margins>
      <left-margin>22</left-margin>
      <right-margin>0</right-margin>
     </system-margins>
     <system-distance>144</system-distance>
    </system-layout>
   </print>
   <attributes>
    <staff-details number="1" print-object="yes" />
   </attributes>
   <direction>
    <direction-type>
     <words default-x="285" default-y="25" justify="center" valign="middle" font-family="Opus Chords Std" font-size="7.0755">Bb</words>
    </direction-type>
    <voice>1</voice>
    <staff>1</staff>
   </direction>
   <note color="#000000" default-x="68">
    <pitch>
     <step>D</step>
     <octave>4</octave>
    </pitch>
    <duration>128</duration>
    <instrument id="P1-I1" />
    <voice>1</voice>
    <type>eighth</type>
    <stem>up</stem>
    <staff>1</staff>
    <beam number="1">begin</beam>
    <lyric default-y="-80" number="1" color="#000000">
     <syllabic>middle</syllabic>
     <text>ni</text>
    </lyric>
   </note>
   <note color="#000000" default-x="121">
    <pitch>
     <step>F</step>
     <octave>4</octave>
    </pitch>
    <duration>128</duration>
    <instrument id="P1-I1" />
    <voice>1</voice>
    <type>eighth</type>
    <stem>up</stem>
    <staff>1</staff>
    <beam number="1">end</beam>
    <lyric default-y="-80" number="1" color="#000000">
     <syllabic>end</syllabic>
     <text>dos</text>
    </lyric>
   </note>
   <note color="#000000" default-x="175">
    <pitch>
     <step>F</step>
     <octave>4</octave>
    </pitch>
    <duration>128</duration>
    <instrument id="P1-I1" />
    <voice>1</voice>
    <type>eighth</type>
    <stem>up</stem>
    <staff>1</staff>
    <beam number="1">begin</beam>
    <lyric default-y="-80" number="1" color="#000000">
     <syllabic>single</syllabic>
     <text>na</text>
    </lyric>
   </note>
   <note color="#000000" default-x="228">
    <pitch>
     <step>B</step>
     <alter>-1</alter>
     <octave>4</octave>
    </pitch>
    <duration>128</duration>
    <instrument id="P1-I1" />
    <voice>1</voice>
    <type>eighth</type>
    <stem>up</stem>
    <staff>1</staff>
    <beam number="1">end</beam>
    <lyric default-y="-80" number="1" color="#000000">
     <syllabic>begin</syllabic>
     <text>ver</text>
    </lyric>
   </note>
  </measure>
  <measure number="22" width="195">
   <direction>
    <direction-type>
     <words default-x="459" default-y="25" justify="center" valign="middle" font-family="Opus Chords Std" font-size="7.0755">F</words>
    </direction-type>
    <voice>1</voice>
    <staff>1</staff>
   </direction>
   <note color="#000000" default-x="15">
    <pitch>
     <step>A</step>
     <octave>4</octave>
    </pitch>
    <duration>256</duration>
    <instrument id="P1-I1" />
    <voice>1</voice>
    <type>quarter</type>
    <stem>up</stem>
    <staff>1</staff>
    <lyric default-y="-80" number="1" color="#000000">
     <syllabic>middle</syllabic>
     <text>da</text>
    </lyric>
   </note>
   <note color="#000000" default-x="88">
    <pitch>
     <step>A</step>
     <octave>4</octave>
    </pitch>
    <duration>128</duration>
    <instrument id="P1-I1" />
    <voice>1</voice>
    <type>eighth</type>
    <stem>up</stem>
    <staff>1</staff>
    <beam number="1">begin</beam>
    <lyric default-y="-80" number="1" color="#000000">
     <syllabic>end</syllabic>
     <text>de</text>
    </lyric>
   </note>
   <note color="#000000" default-x="141">
    <pitch>
     <step>F</step>
     <octave>4</octave>
    </pitch>
    <duration>128</duration>
    <instrument id="P1-I1" />
    <voice>1</voice>
    <type>eighth</type>
    <stem>up</stem>
    <staff>1</staff>
    <beam number="1">end</beam>
    <lyric default-y="-80" number="1" color="#000000">
     <syllabic>single</syllabic>
     <text>nos</text>
    </lyric>
   </note>
  </measure>
  <measure number="23" width="228">
   <direction>
    <direction-type>
     <words default-x="654" default-y="25" justify="center" valign="middle" font-family="Opus Chords Std" font-size="7.0755">Bb</words>
    </direction-type>
    <voice>1</voice>
    <staff>1</staff>
   </direction>
   <note color="#000000" default-x="15">
    <pitch>
     <step>D</step>
     <octave>5</octave>
    </pitch>
    <duration>128</duration>
    <instrument id="P1-I1" />
    <voice>1</voice>
    <type>eighth</type>
    <stem>down</stem>
    <staff>1</staff>
    <beam number="1">begin</beam>
    <lyric default-y="-80" number="1" color="#000000">
     <syllabic>begin</syllabic>
     <text>mo</text>
    </lyric>
   </note>
   <note color="#000000" default-x="68">
    <pitch>
     <step>C</step>
     <octave>5</octave>
    </pitch>
    <duration>128</duration>
    <instrument id="P1-I1" />
    <voice>1</voice>
    <type>eighth</type>
    <stem>down</stem>
    <staff>1</staff>
    <beam number="1">end</beam>
    <lyric default-y="-80" number="1" color="#000000">
     <syllabic>end</syllabic>
     <text>ve_a</text>
    </lyric>
   </note>
   <note color="#000000" default-x="121">
    <pitch>
     <step>B</step>
     <alter>-1</alter>
     <octave>4</octave>
    </pitch>
    <duration>128</duration>
    <instrument id="P1-I1" />
    <voice>1</voice>
    <type>eighth</type>
    <stem>up</stem>
    <staff>1</staff>
    <beam number="1">begin</beam>
    <lyric default-y="-80" number="1" color="#000000">
     <syllabic>begin</syllabic>
     <text>es</text>
    </lyric>
   </note>
   <note color="#000000" default-x="175">
    <pitch>
     <step>A</step>
     <octave>4</octave>
    </pitch>
    <duration>128</duration>
    <instrument id="P1-I1" />
    <voice>1</voice>
    <type>eighth</type>
    <stem>up</stem>
    <staff>1</staff>
    <beam number="1">end</beam>
    <lyric default-y="-80" number="1" color="#000000">
     <syllabic>middle</syllabic>
     <text>pe</text>
    </lyric>
   </note>
  </measure>
  <measure number="24" width="253">
   <direction>
    <direction-type>
     <words default-x="882" default-y="25" justify="center" valign="middle" font-family="Opus Chords Std" font-size="7.0755">Fa/la</words>
    </direction-type>
    <voice>1</voice>
    <staff>1</staff>
   </direction>
   <note color="#000000" default-x="15">
    <pitch>
     <step>G</step>
     <octave>4</octave>
    </pitch>
    <duration>128</duration>
    <instrument id="P1-I1" />
    <voice>1</voice>
    <type>eighth</type>
    <stem>up</stem>
    <staff>1</staff>
    <beam number="1">begin</beam>
    <lyric default-y="-80" number="1" color="#000000">
     <syllabic>middle</syllabic>
     <text>ra</text>
    </lyric>
   </note>
   <note color="#000000" default-x="68">
    <pitch>
     <step>A</step>
     <octave>4</octave>
    </pitch>
    <duration>64</duration>
    <instrument id="P1-I1" />
    <voice>1</voice>
    <type>16th</type>
    <stem>up</stem>
    <staff>1</staff>
    <beam number="1">continue</beam>
   </note>
   <note color="#000000" default-x="109">
    <pitch>
     <step>F</step>
     <octave>4</octave>
    </pitch>
    <duration>64</duration>
    <tie type="start" />
    <instrument id="P1-I1" />
    <voice>1</voice>
    <type>16th</type>
    <stem>up</stem>
    <staff>1</staff>
    <beam number="1">end</beam>
    <notations>
     <tied type="start" />
    </notations>
    <lyric default-y="-80" number="1" color="#000000">
     <syllabic>end</syllabic>
     <text>ça</text>
     <extend />
    </lyric>
   </note>
   <direction>
    <direction-type>
     <words default-x="1017" default-y="25" justify="center" valign="middle" font-family="Opus Chords Std" font-size="7.0755">Dm</words>
    </direction-type>
    <voice>1</voice>
    <staff>1</staff>
   </direction>
   <note color="#000000" default-x="150">
    <pitch>
     <step>F</step>
     <octave>4</octave>
    </pitch>
    <duration>192</duration>
    <tie type="stop" />
    <instrument id="P1-I1" />
    <voice>1</voice>
    <type>eighth</type>
    <dot />
    <stem>up</stem>
    <staff>1</staff>
    <beam number="1">begin</beam>
    <notations>
     <tied type="stop" />
    </notations>
   </note>
   <note color="#000000" default-x="213">
    <pitch>
     <step>C</step>
     <octave>4</octave>
    </pitch>
    <duration>64</duration>
    <instrument id="P1-I1" />
    <voice>1</voice>
    <type>16th</type>
    <stem>up</stem>
    <staff>1</staff>
    <beam number="1">end</beam>
    <lyric default-y="-80" number="1" color="#000000">
     <syllabic>single</syllabic>
     <text>De</text>
    </lyric>
   </note>
  </measure>
  <measure number="25" width="228">
   <direction>
    <direction-type>
     <words default-x="1136" default-y="25" justify="center" valign="middle" font-family="Opus Chords Std" font-size="7.0755">Bb</words>
    </direction-type>
    <voice>1</voice>
    <staff>1</staff>
   </direction>
   <note color="#000000" default-x="15">
    <pitch>
     <step>D</step>
     <octave>4</octave>
    </pitch>
    <duration>128</duration>
    <instrument id="P1-I1" />
    <voice>1</voice>
    <type>eighth</type>
    <stem>up</stem>
    <staff>1</staff>
    <beam number="1">begin</beam>
    <lyric default-y="-80" number="1" color="#000000">
     <syllabic>single</syllabic>
     <text>ver</text>
    </lyric>
   </note>
   <note color="#000000" default-x="68">
    <pitch>
     <step>F</step>
     <octave>4</octave>
    </pitch>
    <duration>128</duration>
    <instrument id="P1-I1" />
    <voice>1</voice>
    <type>eighth</type>
    <stem>up</stem>
    <staff>1</staff>
    <beam number="1">end</beam>
    <lyric default-y="-80" number="1" color="#000000">
     <syllabic>single</syllabic>
     <text>Te</text>
    </lyric>
   </note>
   <note color="#000000" default-x="121">
    <pitch>
     <step>F</step>
     <octave>4</octave>
    </pitch>
    <duration>128</duration>
    <instrument id="P1-I1" />
    <voice>1</voice>
    <type>eighth</type>
    <stem>up</stem>
    <staff>1</staff>
    <beam number="1">begin</beam>
    <lyric default-y="-80" number="1" color="#000000">
     <syllabic>begin</syllabic>
     <text>re</text>
    </lyric>
   </note>
   <note color="#000000" default-x="174">
    <pitch>
     <step>G</step>
     <octave>4</octave>
    </pitch>
    <duration>128</duration>
    <instrument id="P1-I1" />
    <voice>1</voice>
    <type>eighth</type>
    <stem>up</stem>
    <staff>1</staff>
    <beam number="1">end</beam>
    <lyric default-y="-80" number="1" color="#000000">
     <syllabic>middle</syllabic>
     <text>gres</text>
    </lyric>
   </note>
  </measure>
  <measure number="26" width="223">
   <direction>
    <direction-type>
     <words default-x="1364" default-y="25" justify="center" valign="middle" font-family="Opus Chords Std" font-size="7.0755">Gm7</words>
    </direction-type>
    <voice>1</voice>
    <staff>1</staff>
   </direction>
   <note color="#000000" default-x="15">
    <pitch>
     <step>G</step>
     <octave>4</octave>
    </pitch>
    <duration>256</duration>
    <tie type="start" />
    <instrument id="P1-I1" />
    <voice>1</voice>
    <type>quarter</type>
    <stem>up</stem>
    <staff>1</staff>
    <notations>
     <tied type="start" />
    </notations>
    <lyric default-y="-80" number="1" color="#000000">
     <syllabic>end</syllabic>
     <text>sar</text>
     <extend />
    </lyric>
   </note>
   <note color="#000000" default-x="88">
    <pitch>
     <step>G</step>
     <octave>4</octave>
    </pitch>
    <duration>128</duration>
    <tie type="stop" />
    <instrument id="P1-I1" />
    <voice>1</voice>
    <type>eighth</type>
    <stem>up</stem>
    <staff>1</staff>
    <beam number="1">begin</beam>
    <notations>
     <tied type="stop" />
    </notations>
   </note>
   <direction>
    <direction-type>
     <words default-x="1491" default-y="25" justify="center" valign="middle" font-family="Opus Chords Std" font-size="7.0755">C4</words>
    </direction-type>
    <voice>1</voice>
    <staff>1</staff>
   </direction>
   <note color="#000000" default-x="141">
    <pitch>
     <step>F</step>
     <octave>4</octave>
    </pitch>
    <duration>64</duration>
    <instrument id="P1-I1" />
    <voice>1</voice>
    <type>16th</type>
    <stem>up</stem>
    <staff>1</staff>
    <beam number="1">continue</beam>
    <lyric default-y="-80" number="1" color="#000000">
     <syllabic>single</syllabic>
     <text>que</text>
    </lyric>
   </note>
   <direction>
    <direction-type>
     <words default-x="1532" default-y="25" justify="center" valign="middle" font-family="Opus Chords Std" font-size="7.0755">C</words>
    </direction-type>
    <voice>1</voice>
    <staff>1</staff>
   </direction>
   <note color="#000000" default-x="182">
    <pitch>
     <step>E</step>
     <octave>4</octave>
    </pitch>
    <duration>64</duration>
    <instrument id="P1-I1" />
    <voice>1</voice>
    <type>16th</type>
    <stem>up</stem>
    <staff>1</staff>
    <beam number="1">end</beam>
    <lyric default-y="-80" number="1" color="#000000">
     <syllabic>single</syllabic>
     <text>a</text>
    </lyric>
   </note>
  </measure>
  <measure number="27" width="167">
   <direction>
    <direction-type>
     <words default-x="1588" default-y="25" justify="center" valign="middle" font-family="Opus Chords Std" font-size="7.0755">Bb2</words>
    </direction-type>
    <voice>1</voice>
    <staff>1</staff>
   </direction>
   <note color="#000000" default-x="15">
    <pitch>
     <step>F</step>
     <octave>4</octave>
    </pitch>
    <duration>384</duration>
    <instrument id="P1-I1" />
    <voice>1</voice>
    <type>quarter</type>
    <dot />
    <stem>up</stem>
    <staff>1</staff>
    <lyric default-y="-80" number="1" color="#000000">
     <syllabic>begin</syllabic>
     <text>Tu</text>
    </lyric>
   </note>
   <note color="#000000" default-x="114">
    <pitch>
     <step>C</step>
     <octave>5</octave>
    </pitch>
    <duration>128</duration>
    <instrument id="P1-I1" />
    <voice>1</voice>
    <type>eighth</type>
    <stem>down</stem>
    <staff>1</staff>
    <beam number="1">begin</beam>
    <lyric default-y="-80" number="1" color="#000000">
     <syllabic>end</syllabic>
     <text>a</text>
    </lyric>
   </note>
  </measure>
  <measure number="28" width="206">
   <print new-system="yes">
    <system-layout>
     <system-margins>
      <left-margin>22</left-margin>
      <right-margin>0</right-margin>
     </system-margins>
     <system-distance>144</system-distance>
    </system-layout>
   </print>
   <attributes>
    <staff-details number="1" print-object="yes" />
   </attributes>
   <direction>
    <direction-type>
     <words default-x="285" default-y="25" justify="center" valign="middle" font-family="Opus Chords Std" font-size="7.0755">F/la</words>
    </direction-type>
    <voice>1</voice>
    <staff>1</staff>
   </direction>
   <note color="#000000" default-x="68">
    <pitch>
     <step>C</step>
     <octave>5</octave>
    </pitch>
    <duration>512</duration>
    <instrument id="P1-I1" />
    <voice>1</voice>
    <type>half</type>
    <stem>down</stem>
    <staff>1</staff>
    <lyric default-y="-80" number="1" color="#000000">
     <syllabic>single</syllabic>
     <text>voz</text>
    </lyric>
   </note>
  </measure>
  <measure number="29" width="250">
   <direction>
    <direction-type>
     <words default-x="384" default-y="25" justify="center" valign="middle" font-family="Opus Chords Std" font-size="7.0755">Bb</words>
    </direction-type>
    <voice>1</voice>
    <staff>1</staff>
   </direction>
   <note color="#000000" default-x="15">
    <pitch>
     <step>F</step>
     <octave>4</octave>
    </pitch>
    <duration>128</duration>
    <instrument id="P1-I1" />
    <voice>1</voice>
    <type>eighth</type>
    <stem>up</stem>
    <staff>1</staff>
    <beam number="1">begin</beam>
    <lyric default-y="-80" number="1" color="#000000">
     <syllabic>begin</syllabic>
     <text>se</text>
    </lyric>
   </note>
   <note color="#000000" default-x="73">
    <pitch>
     <step>D</step>
     <octave>4</octave>
    </pitch>
    <duration>128</duration>
    <instrument id="P1-I1" />
    <voice>1</voice>
    <type>eighth</type>
    <stem>up</stem>
    <staff>1</staff>
    <beam number="1">end</beam>
    <lyric default-y="-80" number="1" color="#000000">
     <syllabic>end</syllabic>
     <text>ja_a</text>
    </lyric>
   </note>
   <note color="#000000" default-x="132">
    <pitch>
     <step>F</step>
     <octave>4</octave>
    </pitch>
    <duration>128</duration>
    <instrument id="P1-I1" />
    <voice>1</voice>
    <type>eighth</type>
    <stem>up</stem>
    <staff>1</staff>
    <beam number="1">begin</beam>
    <lyric default-y="-80" number="1" color="#000000">
     <syllabic>begin</syllabic>
     <text>nos</text>
    </lyric>
   </note>
   <note color="#000000" default-x="191">
    <pitch>
     <step>D</step>
     <octave>5</octave>
    </pitch>
    <duration>128</duration>
    <instrument id="P1-I1" />
    <voice>1</voice>
    <type>eighth</type>
    <stem>up</stem>
    <staff>1</staff>
    <beam number="1">end</beam>
    <lyric default-y="-80" number="1" color="#000000">
     <syllabic>end</syllabic>
     <text>sa</text>
    </lyric>
   </note>
  </measure>
  <measure number="30" width="152">
   <direction>
    <direction-type>
     <words default-x="634" default-y="25" justify="center" valign="middle" font-family="Opus Chords Std" font-size="7.0755">F/la</words>
    </direction-type>
    <voice>1</voice>
    <staff>1</staff>
   </direction>
   <note color="#000000" default-x="15">
    <pitch>
     <step>C</step>
     <octave>5</octave>
    </pitch>
    <duration>512</duration>
    <instrument id="P1-I1" />
    <voice>1</voice>
    <type>half</type>
    <stem>down</stem>
    <staff>1</staff>
    <lyric default-y="-80" number="1" color="#000000">
     <syllabic>single</syllabic>
     <text>voz</text>
    </lyric>
   </note>
  </measure>
  <measure number="31" width="263">
   <barline location="left">
    <repeat direction="forward" />
   </barline>
   <direction>
    <direction-type>
     <words default-x="800" default-y="25" justify="center" valign="middle" font-family="Opus Chords Std" font-size="7.0755">Bb</words>
    </direction-type>
    <voice>1</voice>
    <staff>1</staff>
   </direction>
   <note color="#000000" default-x="28">
    <pitch>
     <step>D</step>
     <octave>5</octave>
    </pitch>
    <duration>128</duration>
    <instrument id="P1-I1" />
    <voice>1</voice>
    <type>eighth</type>
    <stem>down</stem>
    <staff>1</staff>
    <beam number="1">begin</beam>
    <lyric default-y="-80" number="1" color="#000000">
     <syllabic>begin</syllabic>
     <text>Pa</text>
    </lyric>
    <lyric default-y="-105" number="2" color="#000000">
     <syllabic>begin</syllabic>
     <text>Gui</text>
    </lyric>
   </note>
   <note color="#000000" default-x="86">
    <pitch>
     <step>C</step>
     <octave>5</octave>
    </pitch>
    <duration>128</duration>
    <instrument id="P1-I1" />
    <voice>1</voice>
    <type>eighth</type>
    <stem>down</stem>
    <staff>1</staff>
    <beam number="1">end</beam>
    <lyric default-y="-80" number="1" color="#000000">
     <syllabic>end</syllabic>
     <text>ra</text>
    </lyric>
    <lyric default-y="-105" number="2" color="#000000">
     <syllabic>end</syllabic>
     <text>a</text>
    </lyric>
   </note>
   <note color="#000000" default-x="145">
    <pitch>
     <step>B</step>
     <alter>-1</alter>
     <octave>4</octave>
    </pitch>
    <duration>128</duration>
    <instrument id="P1-I1" />
    <voice>1</voice>
    <type>eighth</type>
    <stem>up</stem>
    <staff>1</staff>
    <beam number="1">begin</beam>
    <lyric default-y="-80" number="1" color="#000000">
     <syllabic>single</syllabic>
     <text>dar</text>
    </lyric>
    <lyric default-y="-105" number="2" color="#000000">
     <syllabic>single</syllabic>
     <text>nos</text>
    </lyric>
   </note>
   <note color="#000000" default-x="204">
    <pitch>
     <step>A</step>
     <octave>4</octave>
    </pitch>
    <duration>128</duration>
    <instrument id="P1-I1" />
    <voice>1</voice>
    <type>eighth</type>
    <stem>up</stem>
    <staff>1</staff>
    <beam number="1">end</beam>
    <lyric default-y="-80" number="1" color="#000000">
     <syllabic>single</syllabic>
     <text>a</text>
    </lyric>
    <lyric default-y="-105" number="2" color="#000000">
     <syllabic>begin</syllabic>
     <text>a</text>
    </lyric>
   </note>
  </measure>
  <measure number="32" width="278">
   <direction>
    <direction-type>
     <words default-x="1050" default-y="25" justify="center" valign="middle" font-family="Opus Chords Std" font-size="7.0755">F/A</words>
    </direction-type>
    <voice>1</voice>
    <staff>1</staff>
   </direction>
   <note color="#000000" default-x="15">
    <pitch>
     <step>G</step>
     <octave>4</octave>
    </pitch>
    <duration>128</duration>
    <instrument id="P1-I1" />
    <voice>1</voice>
    <type>eighth</type>
    <stem>up</stem>
    <staff>1</staff>
    <beam number="1">begin</beam>
    <lyric default-y="-80" number="1" color="#000000">
     <syllabic>begin</syllabic>
     <text>co</text>
    </lyric>
    <lyric default-y="-105" number="2" color="#000000">
     <syllabic>end</syllabic>
     <text>té</text>
    </lyric>
   </note>
   <note color="#000000" default-x="73">
    <pitch>
     <step>A</step>
     <octave>4</octave>
    </pitch>
    <duration>64</duration>
    <instrument id="P1-I1" />
    <voice>1</voice>
    <type>16th</type>
    <stem>up</stem>
    <staff>1</staff>
    <beam number="1">continue</beam>
    <lyric default-y="-80" number="1" color="#000000">
     <syllabic>middle</syllabic>
     <text>nhe</text>
    </lyric>
    <lyric default-y="-105" number="2" color="#000000">
     <syllabic>single</syllabic>
     <text>ao</text>
    </lyric>
   </note>
   <direction>
    <direction-type>
     <words default-x="1154" default-y="25" justify="center" valign="middle" font-family="Opus Chords Std" font-size="7.0755">Dm</words>
    </direction-type>
    <voice>1</voice>
    <staff>1</staff>
   </direction>
   <note color="#000000" default-x="118">
    <pitch>
     <step>F</step>
     <octave>4</octave>
    </pitch>
    <duration>64</duration>
    <tie type="start" />
    <instrument id="P1-I1" />
    <voice>1</voice>
    <type>16th</type>
    <stem>up</stem>
    <staff>1</staff>
    <beam number="1">end</beam>
    <notations>
     <tied type="start" />
    </notations>
    <lyric default-y="-80" number="1" color="#000000">
     <syllabic>end</syllabic>
     <text>cer</text>
     <extend />
    </lyric>
    <lyric default-y="-105" number="2" color="#000000">
     <syllabic>single</syllabic>
     <text>fim</text>
     <extend />
    </lyric>
   </note>
   <note color="#000000" default-x="163">
    <pitch>
     <step>F</step>
     <octave>4</octave>
    </pitch>
    <duration>192</duration>
    <tie type="stop" />
    <instrument id="P1-I1" />
    <voice>1</voice>
    <type>eighth</type>
    <dot />
    <stem>up</stem>
    <staff>1</staff>
    <beam number="1">begin</beam>
    <notations>
     <tied type="stop" />
    </notations>
   </note>
   <note color="#000000" default-x="233">
    <pitch>
     <step>C</step>
     <octave>4</octave>
    </pitch>
    <duration>64</duration>
    <instrument id="P1-I1" />
    <voice>1</voice>
    <type>16th</type>
    <stem>up</stem>
    <staff>1</staff>
    <beam number="1">end</beam>
    <lyric default-y="-80" number="1" color="#000000">
     <syllabic>single</syllabic>
     <text>ao</text>
    </lyric>
    <lyric default-y="-105" number="2" color="#000000">
     <syllabic>begin</syllabic>
     <text>con</text>
    </lyric>
   </note>
  </measure>
  <measure number="33" width="250">
   <direction>
    <direction-type>
     <words default-x="1329" default-y="25" justify="center" valign="middle" font-family="Opus Chords Std" font-size="7.0755">Gm7</words>
    </direction-type>
    <voice>1</voice>
    <staff>1</staff>
   </direction>
   <note color="#000000" default-x="15">
    <pitch>
     <step>D</step>
     <octave>4</octave>
    </pitch>
    <duration>128</duration>
    <instrument id="P1-I1" />
    <voice>1</voice>
    <type>eighth</type>
    <stem>up</stem>
    <staff>1</staff>
    <beam number="1">begin</beam>
    <lyric default-y="-80" number="1" color="#000000">
     <syllabic>begin</syllabic>
     <text>mun</text>
    </lyric>
    <lyric default-y="-105" number="2" color="#000000">
     <syllabic>middle</syllabic>
     <text>ti</text>
    </lyric>
   </note>
   <note color="#000000" default-x="73">
    <pitch>
     <step>F</step>
     <octave>4</octave>
    </pitch>
    <duration>128</duration>
    <instrument id="P1-I1" />
    <voice>1</voice>
    <type>eighth</type>
    <stem>up</stem>
    <staff>1</staff>
    <beam number="1">end</beam>
    <lyric default-y="-80" number="1" color="#000000">
     <syllabic>end</syllabic>
     <text>do_o</text>
    </lyric>
    <lyric default-y="-105" number="2" color="#000000">
     <syllabic>end</syllabic>
     <text>go</text>
    </lyric>
   </note>
   <direction>
    <direction-type>
     <words default-x="1446" default-y="25" justify="center" valign="middle" font-family="Opus Chords Std" font-size="7.0755">Bb/do</words>
    </direction-type>
    <voice>1</voice>
    <staff>1</staff>
   </direction>
   <note color="#000000" default-x="132">
    <pitch>
     <step>F</step>
     <octave>4</octave>
    </pitch>
    <duration>128</duration>
    <instrument id="P1-I1" />
    <voice>1</voice>
    <type>eighth</type>
    <stem>up</stem>
    <staff>1</staff>
    <beam number="1">begin</beam>
    <lyric default-y="-80" number="1" color="#000000">
     <syllabic>single</syllabic>
     <text>Teu</text>
    </lyric>
    <lyric default-y="-105" number="2" color="#000000">
     <syllabic>begin</syllabic>
     <text>nos</text>
    </lyric>
   </note>
   <note color="#000000" default-x="191">
    <pitch>
     <step>E</step>
     <octave>4</octave>
    </pitch>
    <duration>128</duration>
    <instrument id="P1-I1" />
    <voice>1</voice>
    <type>eighth</type>
    <stem>up</stem>
    <staff>1</staff>
    <beam number="1">end</beam>
    <lyric default-y="-80" number="1" color="#000000">
     <syllabic>begin</syllabic>
     <text>a</text>
    </lyric>
    <lyric default-y="-105" number="2" color="#000000">
     <syllabic>end</syllabic>
     <text>so</text>
    </lyric>
   </note>
  </measure>
  <measure number="34" width="175">
   <direction>
    <direction-type>
     <words default-x="1579" default-y="25" justify="center" valign="middle" font-family="Opus Chords Std" font-size="7.0755">C7(b9)</words>
    </direction-type>
    <voice>1</voice>
    <staff>1</staff>
   </direction>
   <direction>
    <direction-type>
     <words default-x="1648" default-y="25" justify="center" valign="middle" font-family="Opus Chords Std" font-size="7.0755">F</words>
    </direction-type>
    <offset sound="no">256</offset>
    <voice>1</voice>
    <staff>1</staff>
   </direction>
   <note color="#000000" default-x="15">
    <pitch>
     <step>F</step>
     <octave>4</octave>
    </pitch>
    <duration>512</duration>
    <instrument id="P1-I1" />
    <voice>1</voice>
    <type>half</type>
    <stem>up</stem>
    <staff>1</staff>
    <lyric default-y="-80" number="1" color="#000000">
     <syllabic>end</syllabic>
     <text>mor.</text>
    </lyric>
    <lyric default-y="-105" number="2" color="#000000">
     <syllabic>single</syllabic>
     <text>Deus.</text>
    </lyric>
   </note>
   <barline location="right">
    <repeat direction="backward" />
   </barline>
  </measure>
 </part>
</score-partwise>
